<svg width="334" height="500" viewBox="0 0 334 500" xmlns="http://www.w3.org/2000/svg"><title>BaseOctocat_v1</title><g fill="none" fill-rule="evenodd"><ellipse cx="128.499" cy="33.167" rx="128.268" ry="32.903" transform="translate(4.453 433.75)" fill="#5CDFF2" fill-rule="nonzero"/><g fill-rule="nonzero"><path d="M221.156 446.257c-2.595-.577-3.747 1.732-3.747 1.732s-2.883.576-5.187-2.309c-2.304-2.884 1.728-7.786-3.459-14.709-2.93-3.91-7.606-7.632-12.107-10.341l-.469-.28-.55-.317-.323-.185-.365-.202-.323-.178-.36-.19-.323-.172-.35-.178-.33-.167-.333-.166-.341-.164-.297-.148-.395-.178-.252-.113c-.202-.092-.404-.176-.594-.259l-.24-.098-.375-.151-.252-.098-.35-.131-.247-.086a7.478 7.478 0 0 0-.335-.116l-.235-.077a6.977 6.977 0 0 0-.332-.104l-.214-.066-.35-.095-.173-.047-.495-.116a13.77 13.77 0 0 0-2.034-.265l-.558-2.605v.018s-5.344 2.52-11.677 5.006c-3.355 1.319-6.983 2.632-10.23 3.565-2.322.66-4.454 1.117-6.14 1.233a8.435 8.435 0 0 1-1.933-.05c-.89.127-1.971.26-3.248.377-3.895.353-9.7.564-18.294.017-4.35-.276-8.384-.579-11.831-1.019-4.317-.55-7.72-1.316-9.658-2.513a4.481 4.481 0 0 1-1.333-1.188h-.487c-3.713-.037-7.42-.278-11.107-.722-4.595-.615-8.152-1.88-11.771-4.778v-.02l-.526 1.467-3.227 8.993-.849.297-.217.078c-.267.092-.537.187-.807.297l-.063.02-.89.33-.178.068-.84.327-.063.027c-.297.122-.62.25-.932.38l-.119.048a38.42 38.42 0 0 0-.89.386h-.042c-.327.143-.653.297-.98.44h-.033c-.323.148-.65.297-.976.457-.668.321-1.34.66-2.007 1.013a50.596 50.596 0 0 0-5.938 3.657 43.93 43.93 0 0 0-3.212 2.55l-.05.044c-.383.335-.761.68-1.135 1.034h-.015c-.371.35-.74.713-1.098 1.081l-.05.05c-.218.227-.434.452-.648.684l-.039.045-.05.05c-.345.375-.68.758-1.013 1.15l-.017.02c-.333.393-.656.791-.974 1.19l-.107.139c-.178.228-.353.463-.526.698l-.103.142c-.41.565-.806 1.146-1.188 1.744 0 .027-.033.054-.05.08l-.018.03a33.75 33.75 0 0 0-.523.856l-.08.137c-.142.24-.297.487-.422.733-.02.042-.044.084-.068.122-.024.039-.027.05-.041.077a34.15 34.15 0 0 0-1.072 2.125v.02c-.119.252-.235.507-.348.767l-.121.297a48.985 48.985 0 0 0-.404.983.262.262 0 0 1 0 .045 36.87 36.87 0 0 0-.395 1.055v.023l-.018.05a47.69 47.69 0 0 0-.43 1.302c-.08.262-.16.526-.238.79-.017.066-.038.131-.056.196-.018.066-.03.101-.042.152-.083.297-.16.594-.237.891a.892.892 0 0 1-.024.095c0 .05-.027.101-.039.149-.092.38-.18.763-.267 1.153 0 .08-.032.16-.047.24-.066.297-.125.618-.184.933a17.54 17.54 0 0 0-.069.386c-.05.283-.098.565-.142.85 0 .068-.02.137-.033.205l-.026.184a42.3 42.3 0 0 0-.14 1.043v.119a.746.746 0 0 0 0 .08c-.047.416-.092.835-.13 1.26l-.018.22v.14c-.027.296-.05.626-.072.947v.442c-.017.298-.03.621-.041.936v.413c0 .449-.018.892-.018 1.36.297 8.076 13.835 14.998 24.787 12.98l.995-.19.335-.065.653-.13.407-.084.58-.119.424-.092.555-.121.44-.095.525-.12.454-.103.487-.113.478-.116.448-.107.499-.122.407-.098.525-.13.315-.08a177.29 177.29 0 0 0 4.64-1.252h-.127l.739-.21c.174-.446.318-.902.43-1.367.072.398.152.79.238 1.17l.46-.133c0 .327 0 .647.02.965v.173c0 .297.019.612.03.909.146.457.297.891.467 1.319l-.395.172c0 .158.02.297.03.46a.728.728 0 0 1 0 .08v.28c0 .095 0 .19.02.297a.146.146 0 0 1 0 .036v.116c0 .166.03.332.045.493v.148c0 .128.023.256.035.378v.118c0 .11.027.217.039.327v.238c.015.11.027.217.042.32v.135c0 .089.026.175.038.264.012.089 0 .092.02.137.022.044 0 .05 0 .077v.05l.028.164v.1l.017.093c0 .06.021.113.03.166.009.054.024.125.033.181v.042c.02.098.041.193.06.297 0 .027.014.054.02.08.02.098.044.196.068.297 1.443 5.482 18.737 8.366 26.806 6.346 8.07-2.02 21.332-14.997 25.654-19.034.125-.12.25-.24.369-.366l.118-.124c.08-.087.16-.173.238-.262.077-.089.089-.104.133-.157l.024-.027a.924.924 0 0 0 .069-.083c.038-.045.08-.092.115-.14.036-.047.092-.116.137-.172l.044-.057c.015-.023.033-.044.05-.068l.099-.128.136-.187c.042-.06.08-.119.122-.175 1.856-2.674 3.014-6.266 3.693-9.507v-.024c.066-.297.125-.615.182-.918a.46.46 0 0 0 0-.062c.053-.297.103-.577.148-.859v-.05c.042-.256.08-.508.116-.755 0-.104.03-.205.041-.297.024-.166.045-.333.066-.493 0-.083.02-.17.032-.25v-.077l.069-.594v-.113c.023-.232.044-.458.062-.671l.335.169.125.056.238.11.166.075.223.095.178.074.237.095.193.074.247.095.207.078.259.092.22.077.264.092.234.077.276.092.24.075.298.092.252.077.297.09.261.076.297.092.267.075.32.092.277.074.33.09.296.076.339.09.297.074.35.089.297.074.356.09.297.074.362.086.297.074.371.086.297.072.38.089.297.068.392.09.315.067.392.087.33.07.391.084.333.071.397.084.336.068.398.083.344.068.4.08.342.069.404.08.35.068.404.078.354.068.4.077.36.066.391.074.377.068.375.069.391.07.372.07.389.068.374.065.391.068.366.066.397.068.348.06.418.07.324.054.434.071.296.05.449.075.297.048.445.074.297.045.46.074.232.036.507.08.193.03.535.083.142.02.594.09c4.95.745 9.233 1.265 11.501 1.434l.297.021.395.024c5.763.297 12.392.576 19.313-.576 6.92-1.153 6.63-4.617 10.952-7.502 4.323-2.885 3.978-6.102 1.384-6.681zm-164.521-2.6a45.494 45.494 0 0 0-.422.734c.14-.244.28-.493.422-.734zm-3.688 8.726zm4.29-9.721l.018-.03c-.184.297-.365.594-.54.891l.047-.08c.155-.264.315-.523.475-.781z" fill="#282828"/><path d="M56.112 444.59a35.482 35.482 0 0 0-1.072 2.124c.03-.068.063-.136.095-.205.303-.655.629-1.295.977-1.919zm-1.977 4.225c-.14.353-.273.713-.404 1.078v-.024c.137-.356.267-.707.404-1.054zm-.852 2.43a47.691 47.691 0 0 1 .43-1.301 38.626 38.626 0 0 0-.724 2.287l.056-.196c.077-.264.157-.529.238-.79zm1.27-3.458l.122-.297c.113-.258.229-.513.347-.767a53.724 53.724 0 0 0-.795 1.845c.104-.261.216-.52.326-.781zm-1.905 5.722a39.76 39.76 0 0 0-.315 1.393c.014-.08.032-.16.047-.24.086-.39.17-.773.268-1.153zm109.157 3.131l-.315-.068.315.068zM61.29 437.4c-.362.397-.717.793-1.063 1.189a37.43 37.43 0 0 1 1.012-1.15l.05-.039zm83.918 31.76c.054-.06.104-.123.158-.185l-.024.027-.134.157zm-86.721-28.358c-.41.568-.81 1.153-1.187 1.753.382-.594.777-1.176 1.187-1.744v-.009zm33.448 41.432c-.018-.089-.039-.184-.06-.297v-.042c0-.056-.02-.118-.032-.18-.012-.063-.021-.108-.03-.167l-.018-.092v-.101c.077.475.163.891.253 1.23a4.091 4.091 0 0 1-.069-.297c-.03 0-.038-.027-.044-.054zm-29.954-45.567a33.169 33.169 0 0 0-.005.006l.005-.006zm101.261 20.285l-.333-.071.333.07zM78.56 476.94l-.407.083-.653.13-.336.066-.994.19c1.14-.212 2.271-.438 3.393-.68l-.424.092-.58.119zm12.82.867a.728.728 0 0 0 0-.08l.026.36v-.11c-.018-.057-.02-.113-.027-.17zm.198 2.178c0-.11-.026-.217-.038-.327v-.118c0-.122-.024-.25-.036-.378v-.148c0-.16-.03-.327-.044-.494v-.112a.157.157 0 0 0 0-.039c.053.671.115 1.292.184 1.854v-.113c0-.036-.063-.086-.066-.125zm-1.488-5.927l-.738.211h-.015a177.29 177.29 0 0 1-4.64 1.25l-.315.081-.526.13-.406.099-.5.122-.448.107-.478.115-.486.113-.455.104-.525.12-.44.094a162.793 162.793 0 0 0 10.64-2.745c-.085-.38-.165-.772-.237-1.17a10.66 10.66 0 0 1-.43 1.37zm1.183 1.717c0-.297-.021-.594-.03-.909v-.119a83 83 0 0 0 .104 2.51l.395-.171a16.81 16.81 0 0 1-.47-1.31zm-39.196-19.548a42.96 42.96 0 0 0-.175 1.055c0-.069.02-.137.033-.205.044-.286.092-.568.142-.85zm39.662 24.851c0-.044-.015-.092-.021-.136 0 .089.027.178.041.264v-.05c-.02-.027-.02-.054-.02-.078zm-.092-.534l.017.133v-.113l-.017-.02zm-40.095-20.217v-.14c-.033.407-.063.817-.09 1.233v-.145c.04-.321.063-.636.09-.948zm110.965-3.53l-.33-.07.33.07zm-111.102 5.859c0-.315.024-.627.042-.936a50.504 50.504 0 0 0-.074 2.71c0-.458 0-.912.017-1.361.006-.137.01-.273.015-.413zm114.045-5.253l-.342-.068.341.068zm-113.585.063c-.056.383-.11.77-.154 1.161v-.118c.056-.35.104-.696.154-1.043zm112.842-.211l-.344-.068.344.068zm-.742-.152l-.336-.068.336.068zm-90.507-28.868a47.77 47.77 0 0 0-9.138 6.206 43.93 43.93 0 0 1 3.212-2.549 50.997 50.997 0 0 1 5.926-3.657zm-21.889 31.732zm102.135-5.451l-.234-.077.234.077zm1.616.502l-.262-.077.261.077zm-2.592-.841l-.208-.077.208.077zm.478.169l-.22-.077.22.077zm1.015.336l-.24-.074.24.074zm.54.161l-.252-.078.252.078zm-102.625.997c.059-.314.118-.623.184-.932-.077.309-.125.618-.184.933zm39.094 18.854c0-.318-.015-.639-.02-.966.005.327.011.648.02.966zm59.348-21.438zm-3.963 13.964zm.285-.494l-.113.19.113-.19zm4.138-13.244l-.125-.057.125.057zm-6.078 15.938l-.118.125.119-.124zm6.883-15.585l-.178-.074.178.074zm9.237 2.647l-.298-.068.297.068zm-9.638-2.828l-.166-.074.166.074zm.831.351l-.193-.075.193.075zm7.443 2.163l-.297-.075.297.075zm-.682-.161l-.298-.074.298.074zm1.353.321l-.297-.071.297.071zm-98.365-19.712zm-3.429 4.044c.172-.235.347-.47.525-.699-.178.23-.344.464-.525.699zm4.542-5.128c.374-.355.752-.7 1.134-1.034-.382.327-.76.671-1.134 1.034zm-3.91 4.29zm97.267 15.528l-.276-.074.276.075zm.612.167l-.297-.077.297.077zm.626.163l-.297-.074.297.074zm-1.835-.496l-.267-.074.267.074zm2.479.66l-.297-.075.297.075zm-9.491 6.212c.038-.119.077-.238.113-.36-.027.08-.05.164-.078.244l-.035.116zm26.435-2.909l-.46-.074.46.074zm-.757-.118l-.446-.075.446.075zm-.736-.122l-.449-.075.449.075zm2.22.356l-.508-.08.508.08zm1.467.223l-.594-.09.594.09zm-4.435-.704l-.434-.071.434.07zm3.707.594l-.534-.083.534.083zm-26.417-4.138c0-.125.033-.25.048-.372 0 .036 0 .072-.015.107l-.033.265zm20.415 3.17l-.393-.069.393.069zm-20.349-3.684v.02-.089a.443.443 0 0 0 0 .069zm38.589 6.197c-2.268-.17-6.552-.69-11.501-1.435 4.952.746 9.233 1.266 11.501 1.435zm-16.712-2.264l-.418-.071.419.071zm-21.869-4.007l.066-.595a40 40 0 0 1-.069.594h.003zm21.104 3.876l-.399-.068.399.068zm17.789 2.419l-.297-.021.297.02zm-39.02-5.303c.018-.125.032-.247.047-.369 0 .066-.018.131-.026.193a3.995 3.995 0 0 0-.021.176zm17.418 2.198l-.359-.065.36.065zm-21.414 9.846c-.045.065-.086.13-.131.193l-.06.083c.125-.175.244-.357.363-.544l-.172.268zm1.309-2.371c-.065.14-.13.297-.199.419a.891.891 0 0 1-.048.092c-.068.14-.139.28-.21.416-.03.06-.063.116-.095.175l-.083.152a24.78 24.78 0 0 0 .682-1.343c-.023.047-.03.056-.047.089zm20.863-7.332l-.378-.069.378.069zm-2.287-.431l-.35-.068.35.068zm-17.472 4.949a4.282 4.282 0 0 1-.104.298l-.086.246a4.18 4.18 0 0 1-.112.297l-.09.235c-.038.107-.08.214-.121.32l-.09.227a.553.553 0 0 0-.029.074l-.018.038c.28-.683.532-1.381.757-2.08a.68.68 0 0 0-.024.084c-.02.098-.05.178-.083.261zm.986-3.565c-.02.095-.044.194-.065.298-.021.103-.039.169-.06.255 0 .039-.02.077-.03.116.078-.317.15-.632.215-.945l-.06.276zm17.243-1.238l-.353-.069.354.069zm-19.102 7.103c.048-.104.093-.208.137-.315l-.086.202c-.015.039-.033.074-.05.113zm-2.318 3.951c-.036.048-.077.095-.116.14.101-.122.199-.244.297-.369l-.044.057c-.045.056-.09.116-.137.172zm4.284-10.318c.024-.107.044-.21.065-.318l-.056.277-.01.041zm.306-1.61c0 .077-.027.152-.039.226-.012.074-.036.187-.05.297.047-.261.092-.52.133-.775v.026a2.026 2.026 0 0 0-.044.226zm.047-.294c.027-.17.054-.336.077-.5l-.044.298c-.012.071-.02.137-.033.202zm-.721 3.506v.02l.077-.323c0 .03 0 .059-.02.086l-.057.217zm20.56-1.776l-.39-.07.39.07zm-19.738-2.39c0-.065.02-.127.03-.193v.095c0 .03-.024.066-.03.098zm-.469 2.633v-.045.045zm-3.803 9.637a4.22 4.22 0 0 1-.137.184l-.098.131c.123-.16.242-.324.357-.49-.042.056-.068.116-.122.175zm3.156-7.002l-.071.235v.041l-.027.092c.092-.297.181-.618.264-.927l-.056.2-.11.359zm20.094-3.028l-.393-.07.393.07zm-19.263-.531c0 .092-.035.187-.053.279-.018.092-.018.104-.03.154a36.046 36.046 0 0 0 .083-.433zm2.993-3.309l-.259-.093.259.092zm.496.169l-.265-.093.265.093zm10.148 2.596l-.399-.083.398.083zm25.707 3.91h-.003zm-24.974-3.758l-.398-.084.398.084zm-10.383-2.579l-.276-.092.277.092zm12.627 3.022l-.404-.078.404.077zm-16.094-3.702v.112-.112zm-.199 1.714zm20.09 2.682l-.374-.065.374.065zm-19.974-3.579v.121a.28.28 0 0 1 0-.121zm15.423 2.739l-.404-.08.404.08zm-.745-.149l-.401-.08.401.08zm-14.194-3.91l-.336-.169.336.17zm1.166.505l-.237-.095.237.095zm-.804-.338l-.238-.11.238.11zm.389.169l-.223-.095.223.095zm2.844 1.013l-.297-.092.297.092zm13.604 3.14l-.393-.074.393.074zm-8.037-1.66l-.372-.086.372.086zm12.558 2.451l-.324-.054.324.054zm1.487.249l-.297-.047.297.047zm-.748-.122l-.297-.05.297.05zm-13.977-2.739l-.363-.086.363.086zm1.371.321l-.38-.089.38.09zm.704.158l-.392-.09.392.09zm9.676 1.886l-.366-.065.366.065zm-8.969-1.732l-.392-.086.392.086zm7.449 1.464l-.372-.068.372.069zm-.763-.139l-.375-.068.375.068zm3.025.535l-.348-.06.348.06zm2.969.487l-.297-.044.297.044zm-18.036-3.636l-.33-.09.33.09zm-.606-.161l-.32-.092.32.092zm6.684 1.604l-.393-.083.392.084zm-7.272-1.77l-.297-.092.297.092zm-.57-.17l-.297-.089.297.09zm2.384.666l-.338-.09.338.09zm18.108 3.577l-.232-.036.231.036zm-8.189-1.408l-.4-.077.4.077zm9.575 1.622l-.143-.02.143.02zm-18.856-3.627l-.35-.09.35.09zm.65.163l-.356-.09.357.09zm17.52 3.366l-.193-.03.193.03zm-23.73-5.199l-.247-.095.247.095zm-6.392 13.865v-.003.003zm3.877-10.449v-.074a.46.46 0 0 1 0 .074zm0 0zm-3.877 10.449v-.003zm3.692-9.507v-.02z" fill="#282828"/><path d="M150.41 454.973c0-.035 0-.071.015-.107.015-.035 0-.083 0-.121v-.021c.006.08-.003.166-.015.25zm-.223 1.56v.024-.024zm.116-.758v-.095a.175.175 0 0 1 0-.038c0-.06.015-.116.02-.176.01.104-.005.205-.02.31zM64.33 434.441l-.05.045zm15.236 42.289l.55-.12-.556.122zm11.193-2.874l.46-.133-.46.133zM51.457 461.72v-.297c.009.098.003.196 0 .297zm40.148 18.503c0 .08.02.157.03.235a.755.755 0 0 1 0 .086c-.015-.104-.027-.211-.042-.321h.012zm-.261-2.956c0 .122.018.24.024.36v.1c0-.151-.018-.297-.03-.46h.006zm.071 1.022a.728.728 0 0 1 0 .08c0-.092 0-.187-.02-.297.011.083.017.151.02.217zM51.71 458.705a.746.746 0 0 1 0-.08.242.242 0 0 1 0 .08zm97.625 1.875l.116-.455c0-.024.015-.048.02-.069l-.136.523zm-96.388-8.197c0-.05.027-.101.042-.152-.015.05-.03.101-.042.152zm1.188-3.568zm-.419 1.125l.018-.05c.003.018.003.036-.018.05zm1.306-3.205v-.02zm-2.375 6.774c0-.048.027-.098.039-.149-.012.05-.027.101-.039.149zm-.501 2.331zm-.271 1.626l.027-.184zm97.941 1.054v-.017c0 .05-.02.1-.033.151.015-.044.024-.089.033-.134zm.448-2.49c0-.047 0-.094.021-.142 0 .054 0 .107-.024.16l.003-.017zm-.364 2.08c0-.035 0-.07.02-.106 0 .035 0 .07-.02.107zm.471-2.837v-.032.035zm-3.746 11.947c.059-.096.115-.194.172-.298l-.172.297zm-54.961 13.47c0 .047 0 .091.021.139l.018.125c0-.09-.027-.176-.039-.265zm57.891-21.01l.018-.081c0 .044-.021.09-.033.134l.015-.054zm-93.443-15.09c0-.027.03-.05.042-.077l-.042.077zm91.641 20.475l.116-.264-.12.273.004-.009zm-.843 1.661l.026-.047c.021-.04.042-.08.066-.12a4.094 4.094 0 0 0-.092.17v-.003zm-1.94 2.694zm-.118.125zm-53.113 11.694c0 .044.015.089.023.13l-.026-.163.003.033zm53.636-12.276l.059-.071-.068.083zm.371-.454l.035-.048c-.017.024-.035.045-.05.068l.015-.02zm-94.167-8.542l-.018.22.018-.22zm97.301 2.122v-.033c0 .041-.026.08-.038.119l.039-.086zm1.15-4.647v-.018c0-.03 0-.06.015-.089 0 .036-.015.074-.021.11l.006-.003zm-1.024 4.254l.056-.19c-.02.066-.039.128-.056.19zM63.13 435.532h.015-.015zm-5.83 7.023c0 .027-.033.053-.05.08.017-.027.035-.053.05-.08zm2.91-3.933l.017-.021-.018.02zm-.975 1.2l-.107.14zm2.093-2.466l-.038.044.038-.044zm-2.725 3.304l-.104.142.104-.142zm3.429-4.044l-.05.05.05-.05zm85.976 27.864l.09-.217-.093.223zm-91.373-20.823l.08-.137z" fill="#282828"/><path d="M150.14 456.824c0-.08.026-.16.038-.24-.044.297-.095.567-.148.858 0-.036 0-.074.02-.11 0-.095.033-.187.051-.297.018-.11.024-.134.039-.21zm.163-1.049c-.036.247-.074.5-.116.755 0-.065.021-.13.033-.199l.044-.297c0-.054.018-.107.024-.16l.015-.099zm.042-.309c0-.062.02-.127.026-.193v-.035c0-.09.021-.176.033-.265a9.296 9.296 0 0 1-.06.493zm.098-.742a.443.443 0 0 1 0-.063.213.213 0 0 1 0 .063zm-4.305 13.238l.059-.083c.045-.063.086-.128.13-.193l.17-.265c.038-.065.08-.13.122-.196l.172-.297.113-.19c.03-.056.059-.113.092-.17l.083-.15c.032-.06.065-.117.095-.176.071-.137.142-.276.21-.416a.891.891 0 0 0 .048-.092c.068-.137.134-.28.199-.42a.96.96 0 0 0 .047-.097c.015-.033.045-.095.066-.143.02-.047.08-.181.119-.273.017-.039.035-.074.05-.113l.086-.202.092-.223.018-.038a.553.553 0 0 1 .03-.075l.089-.225c.041-.107.083-.214.121-.321l.09-.235c.038-.104.077-.208.112-.297l.086-.247.104-.297c.033-.092.057-.163.083-.243a.68.68 0 0 1 .024-.084c0-.038.027-.077.039-.118l.035-.116c.027-.08.05-.164.078-.244.026-.08.035-.125.056-.19l.027-.092v-.042l.071-.234.098-.36.056-.199.137-.523v-.02l.053-.217c0-.027.015-.057.021-.087.006-.03.024-.089.033-.133.009-.045.02-.078.03-.116.02-.086.038-.17.059-.256.02-.086.044-.196.065-.297.021-.1.039-.181.06-.27 0-.05.023-.101.032-.152v-.044c-.647 3.205-1.805 6.791-3.66 9.471zm3.865-10.383a.46.46 0 0 0 0-.063c-.056.297-.116.595-.181.918v-.038c.018-.092.039-.184.056-.277 0-.035 0-.07.021-.107.021-.035.021-.104.03-.154.009-.05.06-.187.074-.28z" fill="#282828"/><path d="M192.087 460.954c9.106.594 17.813.989 21.771-1.189 3.958-2.177 12.867-11.29 8.117-13.666-4.75-2.376-4.02 1.58-9.106 5.942-5.543 4.753-13.063 7.92-20.782 8.913zm-69.867 26.539c-5.938 2.771-11.875 2.376-19.793.989-7.918-1.388-15.833-3.167-15.833-6.536 0-3.37 2.176-5.743 7.915-4.95 5.739.794 12.668 5.348 16.032 6.932 3.363 1.583 6.929 4.753 11.68 3.565zm-41.17-11.091c-3.957.79-9.3 3.167-16.426 1.783-7.126-1.385-17.618-4.358-19.399-8.319-.196-4.159 3.21-4.931 6.158-5.436 2.948-.505 9.28 7.02 16.406 9.397a52.01 52.01 0 0 0 13.262 2.575z" fill="#494949"/></g><g fill-rule="nonzero"><path d="M151.61 423.815a63.97 63.97 0 0 0 3.247-.378 8.39 8.39 0 0 0 1.933.05c.208 0 .422-.032.641-.056l.544-.07h.127c.46-.066.941-.152 1.443-.253l.362-.078.333-.071.38-.086.347-.083.371-.092c.235-.06.472-.12.713-.185l.89-.24c3.248-.921 6.876-2.234 10.231-3.565l.594-.235.324-.128.19-.077.062-.024.244-.098.198-.08.128-.054.297-.115.276-.113.32-.131.235-.098.267-.11.113-.047.167-.069.326-.134.208-.089.297-.116.199-.083.041-.018.392-.166h.024l.1-.044.34-.143.154-.068.297-.12.169-.073.033-.015.332-.143.095-.042.05-.02.297-.134c.05-.02.104-.042.152-.065l.32-.137.107-.048.297-.124.116-.05h.033l.276-.123c2.226-.983 3.64-1.646 3.64-1.646l.522 2.43h.05a12.54 12.54 0 0 1 2.729.431c.89.24 1.762.537 2.613.892a42.473 42.473 0 0 1 4.931 2.403 50.089 50.089 0 0 1 8.907 6.379 33.083 33.083 0 0 1 3.79 3.975 15.041 15.041 0 0 1 2.732 4.774 13.99 13.99 0 0 1 .594 5.463c-.047.912-.145 1.819-.137 2.719.01.9.179 1.8.737 2.492l-.092.075a6.28 6.28 0 0 0 2.34 1.865 24.13 24.13 0 0 1-1.892.618l-12.315 3.604c6.235-4.1 7.654-9.57 9.432-15.636a10.778 10.778 0 0 0-.279-.662 11.79 11.79 0 0 0-1.187-2.104 18.539 18.539 0 0 0-1.568-1.916 37.042 37.042 0 0 0-3.711-3.565c-.32-.297-.66-.562-1-.832-.342-.27-.672-.552-1.022-.811l-1.039-.796c-.35-.259-.713-.508-1.066-.764a64.753 64.753 0 0 0-4.385-2.878c-.368-.235-.754-.437-1.131-.657l-.564-.333-.573-.297c-.383-.205-.763-.419-1.152-.594-.389-.175-.766-.404-1.155-.567-.389-.164-.778-.369-1.164-.508-.32-.128-.644-.274-.962-.387a43.293 43.293 0 0 0-8.155-.36l-2.298.482a42.61 42.61 0 0 0-6.829 8.467c-.478.767-1.632 2.377-1.632 2.377s1.683 2.507 2.078 3.12c3.619 5.614 7.945 10.08 12.766 14.705 4.821 4.626 10.364 9.275 16.923 8.022-1.366 1.016-1.654 2.528-1.241 4.034a42.43 42.43 0 0 1-7.37 1.631c1.711.11 3.406.214 5.048.297-2.583-.02-5.068-.137-7.404-.252l-.395-.024-.297-.021c-2.268-.17-6.552-.69-11.502-1.435l-.593-.09-.143-.02-.534-.083-.193-.03-.508-.08-.232-.036-.46-.074-.297-.044-.445-.075-.297-.047-.448-.075-.297-.05-.433-.071-.324-.054-.419-.071-.347-.06-.398-.068-.365-.065-.392-.069-.374-.065-.389-.068-.371-.069-.392-.07-.374-.07-.377-.068-.392-.074-.36-.065-.4-.077-.353-.069-.404-.077-.35-.068-.404-.08-.342-.069-.4-.08-.345-.068-.398-.084-.335-.068-.398-.083-.332-.071-.392-.084-.33-.07-.392-.087-.315-.068-.391-.09-.297-.068-.38-.089-.297-.071-.371-.086-.297-.075-.362-.086-.297-.074-.101-.027-.256-.062-.296-.075-.35-.089-.298-.074-.338-.089-.297-.077-.33-.09-.276-.074-.32-.092-.267-.074-.297-.092-.262-.077-.297-.09-.252-.077-.297-.092-.24-.074-.276-.092-.235-.077-.264-.093-.22-.077-.258-.092-.208-.077-.246-.095-.193-.074-.238-.096-.178-.074-.223-.095-.166-.074-.237-.11-.125-.057-.336-.169c-.017.214-.038.44-.062.672v.112c-.02.197-.044.399-.068.595v.077c0 .08-.021.166-.033.25-.02.16-.041.326-.065.493 0 .104-.027.205-.042.297a34.95 34.95 0 0 1-.116.754v.05c-.044.298-.095.568-.148.86a.46.46 0 0 1 0 .062c-.056.297-.116.609-.181.918v.024c-.68 3.238-1.838 6.833-3.693 9.506-.042.057-.08.116-.122.176-.042.06-.09.124-.137.184l-.098.13c-.017.024-.035.045-.05.069l-.045.056c-.044.057-.089.116-.136.173-.048.056-.077.095-.116.14l-.068.082-.024.027c-.045.054-.086.107-.134.158-.047.05-.157.175-.237.261l-.119.125a10.68 10.68 0 0 1-.368.365c-4.323 4.038-17.582 17.018-25.654 19.035-4.264 1.066-11.104.766-16.822-.565l.419.072c7.918 1.387 13.855 1.782 19.793-.99-4.75 1.189-8.313-1.981-11.68-3.565-3.366-1.583-10.29-6.14-16.031-6.93a13.9 13.9 0 0 0-2.865-.129 17.605 17.605 0 0 1-.371-1.063c0-.297-.021-.594-.03-.91v-.172c0-.317-.015-.638-.02-.965l-.461.134c-.086-.38-.166-.773-.238-1.171-.112.465-.256.921-.43 1.367l-.74.21h-.014c-1.434.408-2.996.832-4.64 1.251l-.315.08-.526.131-.407.098-.498.122-.449.107-.478.116-.486.113-.455.104-.525.119-.44.095-.555.122-.279.059c.618-.16 1.205-.297 1.781-.416a52.01 52.01 0 0 1-13.262-2.576c-7.125-2.376-13.458-9.902-16.406-9.397 0-.448 0-.89.018-1.33v-.414c0-.314.024-.626.042-.935v-.443c.02-.32.044-.636.071-.948v-.14l.018-.22c.038-.424.083-.843.13-1.259a.746.746 0 0 1 0-.08v-.119c.042-.35.09-.698.14-1.043l.027-.184c0-.068.02-.137.032-.205.045-.297.092-.567.143-.85a43.203 43.203 0 0 1 .252-1.32l.048-.24c.086-.389.175-.772.267-1.152 0-.048.027-.098.038-.149a.892.892 0 0 0 .024-.095c.077-.297.155-.594.238-.89 0-.051.026-.102.041-.152l.057-.196a61.371 61.371 0 0 1 .338-1.109c.107-.33.217-.66.33-.983l.018-.05v-.024c.127-.357.258-.707.394-1.055a.262.262 0 0 0 0-.045 48.988 48.988 0 0 1 .404-.983l.122-.297c.113-.26.229-.515.347-.766v-.021c.03-.069.063-.137.095-.205a33.83 33.83 0 0 1 .977-1.92c0-.026.03-.05.042-.077.011-.026.047-.08.068-.121.14-.247.279-.494.421-.734l.08-.137a33.75 33.75 0 0 1 .523-.856l.018-.03a39.686 39.686 0 0 1 1.238-1.824l.104-.142c.172-.235.347-.47.525-.698l.107-.14c.318-.41.642-.808.974-1.188l.018-.02c.332-.393.668-.776 1.012-1.15l.05-.051.04-.045c.213-.231.43-.457.647-.683l.05-.05c.36-.369.727-.731 1.099-1.082h.014c.374-.354.752-.7 1.134-1.034l.05-.044a43.93 43.93 0 0 1 3.213-2.55 50.997 50.997 0 0 1 5.938-3.657 57.752 57.752 0 0 1 2.007-1.013c.327-.157.653-.297.977-.457h.032c.327-.149.654-.297.98-.44h.042c.297-.134.594-.261.89-.386l.12-.048c.31-.13.62-.258.931-.38l.063-.027.84-.326.178-.069.89-.33.063-.02c.27-.101.54-.196.808-.297l.216-.078.85-.297.077-.214h.059c.344-1.008.682-1.998 1.012-2.97l2.079-5.79.525-1.468c.445.36.89.689 1.34.998 3.173 2.198 6.403 3.241 10.432 3.779 3.686.444 7.394.685 11.106.722h.487c.36.481.814.885 1.333 1.188 1.945 1.188 5.344 1.964 9.658 2.513.214.595.365.954.339 1.132 0 0 4.008-.543 10.144 2.229 6.137 2.771 7.883 10.151 7.883 10.151-5.938-8.467-18.802-8.12-23.553-6.337-4.75 1.783-7.027 7.228-7.027 12.576 0 6.025 5.047 11.684 9.204 20.202 4.156 8.517 2.318 8.788 5.937 13.963 2.079 2.971 6.137 3.565 11.481-1.387 4.453-4.118 8.75-7.276 10.756-9.804 1.58-7.647 4.017-21.527-1.576-29.923 2.497-3.518 4.682-3.746 6.552-11.898z" fill="#091426" opacity=".3"/><path d="M152.996 454.27l-.259-.093.259.092zm.496.169l-.265-.093.265.093zm10.148 2.596l-.399-.083.398.083zm25.707 3.91h-.003zm-24.974-3.758l-.398-.084.398.084zm-10.383-2.579l-.276-.092.277.092zm12.627 3.022l-.404-.078.404.077zm-16.094-3.702v.112-.112zm-.199 1.714zm20.09 2.682l-.374-.065.374.065zm-19.974-3.579v.121a.28.28 0 0 1 0-.121zm15.423 2.739l-.404-.08.404.08zm-.745-.149l-.401-.08.401.08zm-14.194-3.91l-.336-.169.336.17zm1.166.505l-.237-.095.237.095zm-.804-.338l-.238-.11.238.11zm.389.169l-.223-.095.223.095zm2.844 1.013l-.297-.092.297.092zm13.604 3.14l-.393-.074.393.074zm-8.037-1.66l-.372-.086.372.086zm12.558 2.451l-.324-.054.324.054zm1.487.249l-.297-.047.297.047zm-.748-.122l-.297-.05.297.05zm-13.977-2.739l-.363-.086.363.086zm1.371.321l-.38-.089.38.09zm.704.158l-.392-.09.392.09zm9.676 1.886l-.366-.065.366.065zm-8.969-1.732l-.392-.086.392.086zm7.449 1.464l-.372-.068.372.069zm-.763-.139l-.375-.068.375.068zm3.025.535l-.348-.06.348.06zm2.969.487l-.297-.044.297.044zm-18.036-3.636l-.33-.09.33.09zm-.606-.161l-.32-.092.32.092zm6.684 1.604l-.393-.083.392.084zm-7.272-1.77l-.297-.092.297.092zm-.57-.17l-.297-.089.297.09zm2.384.666l-.338-.09.338.09zm18.108 3.577l-.232-.036.231.036zm-8.189-1.408l-.4-.077.4.077zm9.575 1.622l-.143-.02.143.02zm-18.856-3.627l-.35-.09.35.09zm.65.163l-.356-.09.357.09zm17.52 3.366l-.193-.03.193.03zm-23.73-5.199l-.247-.095.247.095zm-6.392 13.865v-.003.003zm3.877-10.449v-.074a.46.46 0 0 1 0 .074zm0 0zm-3.877 10.449v-.003zm3.692-9.507v-.02z" fill="#091426" opacity=".3"/><path d="M150.41 454.973c0-.035 0-.071.015-.107.015-.035 0-.083 0-.121v-.021c.006.08-.003.166-.015.25zm-.223 1.56v.024-.024zm.116-.758v-.095a.175.175 0 0 1 0-.038c0-.06.015-.116.02-.176.01.104-.005.205-.02.31zM64.33 434.441l-.05.045zm15.236 42.289l.55-.12-.556.122zm11.193-2.874l.46-.133-.46.133zM51.457 461.72v-.297c.009.098.003.196 0 .297zm40.148 18.503c0 .08.02.157.03.235a.755.755 0 0 1 0 .086c-.015-.104-.027-.211-.042-.321h.012zm-.261-2.956c0 .122.018.24.024.36v.1c0-.151-.018-.297-.03-.46h.006zm.071 1.022a.728.728 0 0 1 0 .08c0-.092 0-.187-.02-.297.011.083.017.151.02.217zM51.71 458.705a.746.746 0 0 1 0-.08.242.242 0 0 1 0 .08zm97.625 1.875l.116-.455c0-.024.015-.048.02-.069l-.136.523zm-96.388-8.197c0-.05.027-.101.042-.152-.015.05-.03.101-.042.152zm1.188-3.568zm-.419 1.125l.018-.05c.003.018.003.036-.018.05zm1.306-3.205v-.02zm-2.375 6.774c0-.048.027-.098.039-.149-.012.05-.027.101-.039.149zm-.501 2.331zm-.271 1.626l.027-.184zm97.941 1.054v-.017c0 .05-.02.1-.033.151.015-.044.024-.089.033-.134zm.448-2.49c0-.047 0-.094.021-.142 0 .054 0 .107-.024.16l.003-.017zm-.364 2.08c0-.035 0-.07.02-.106 0 .035 0 .07-.02.107zm.471-2.837v-.032.035zm-3.746 11.947c.059-.096.115-.194.172-.298l-.172.297zm-54.961 13.47c0 .047 0 .091.021.139l.018.125c0-.09-.027-.176-.039-.265zm57.891-21.01l.018-.081c0 .044-.021.09-.033.134l.015-.054zm-93.443-15.09c0-.027.03-.05.042-.077l-.042.077zm91.641 20.475l.116-.264-.12.273.004-.009zm-.843 1.661l.026-.047c.021-.04.042-.08.066-.12a4.094 4.094 0 0 0-.092.17v-.003zm-1.94 2.694a9.808 9.808 0 0 0 .001 0zm-.118.125zm-53.113 11.694c0 .044.015.089.023.13l-.026-.163.003.033zm53.636-12.276l.059-.071-.068.083zm.371-.454l.035-.048c-.017.024-.035.045-.05.068l.015-.02zm-94.167-8.542l-.018.22.018-.22zm97.301 2.122v-.033c0 .041-.026.08-.038.119l.039-.086zm1.15-4.647v-.018c0-.03 0-.06.015-.089 0 .036-.015.074-.021.11l.006-.003zm-1.024 4.254l.056-.19c-.02.066-.039.128-.056.19zM63.13 435.532h.015-.015zm-5.83 7.023c0 .027-.033.053-.05.08.017-.027.035-.053.05-.08zm2.91-3.933l.017-.021-.018.02zm-.975 1.2l-.107.14zm2.093-2.466l-.038.044.038-.044zm-2.725 3.304l-.104.142.104-.142zm3.429-4.044l-.05.05.05-.05zm85.976 27.864l.09-.217-.093.223zm-91.373-20.823l.08-.137z" fill="#091426" opacity=".3"/><path d="M150.14 456.824c0-.08.026-.16.038-.24-.044.297-.095.567-.148.858 0-.036 0-.074.02-.11 0-.095.033-.187.051-.297.018-.11.024-.134.039-.21zm.163-1.049c-.036.247-.074.5-.116.755 0-.065.021-.13.033-.199l.044-.297c0-.054.018-.107.024-.16l.015-.099zm.042-.309c0-.062.02-.127.026-.193v-.035c0-.09.021-.176.033-.265a9.297 9.297 0 0 1-.06.493zm.098-.742a.443.443 0 0 1 0-.063.213.213 0 0 1 0 .063zm-4.305 13.238l.059-.083c.045-.063.086-.128.13-.193l.17-.265c.038-.065.08-.13.122-.196l.172-.297.113-.19c.03-.056.059-.113.092-.17l.083-.15c.032-.06.065-.117.095-.176.071-.137.142-.276.21-.416a.891.891 0 0 0 .048-.092c.068-.137.134-.28.199-.42a1.48 1.48 0 0 0 .047-.097c.015-.033.045-.095.066-.143.02-.047.08-.181.119-.273.017-.039.035-.074.05-.113l.086-.202.092-.223.018-.038a.553.553 0 0 1 .03-.075l.089-.225c.041-.107.083-.214.121-.321l.09-.235c.038-.104.077-.208.112-.297l.086-.247.104-.297c.033-.092.057-.163.083-.243a.68.68 0 0 1 .024-.084c0-.038.027-.077.039-.118l.035-.116c.027-.08.05-.164.078-.244.026-.08.035-.125.056-.19l.027-.092v-.042l.071-.234.098-.36.056-.199.137-.523v-.02l.053-.217c0-.027.015-.057.021-.087.006-.03.024-.089.033-.133.009-.045.02-.078.03-.116.02-.086.038-.17.059-.256.02-.086.044-.196.065-.297.021-.1.039-.181.06-.27 0-.05.023-.101.032-.152v-.044c-.647 3.205-1.805 6.791-3.66 9.471zm3.865-10.383a.46.46 0 0 0 0-.063 81.81 81.81 0 0 1-.181.918v-.038c.018-.092.039-.184.056-.277 0-.035 0-.07.021-.107.021-.035.021-.104.03-.154.009-.05.06-.187.074-.28zm-65.479-36.732l2.078-5.79-3.15 8.778h.06c.338-1.014.676-2.01 1.012-2.988z" fill="#091426" opacity=".3"/><path d="M151.211 447.234c.179-2.002.413-3.996.737-5.971.154-.99.332-1.97.531-2.947.2-.978.44-1.929.722-2.885.555-1.908 1.208-3.806 1.831-5.734.624-1.928 1.209-3.889 1.678-5.882l.08-.357a8.435 8.435 0 0 1-1.933-.05c-.398 1.946-.89 3.862-1.419 5.808-.528 1.946-1.128 3.862-1.591 5.861-.238.993-.43 2.009-.594 3.019a39.03 39.03 0 0 0-.38 3.027c-.199 2.026-.297 4.05-.35 6.072-.024 1.01-.037 2.02-.039 3.03 0 1.008.027 2.021-.018 3.016l.119.015h.116c.237-2.011.32-4.017.51-6.022zm-44.699-15.52c-.342.244-.68.496-1.013.758a41.951 41.951 0 0 0-3.972 3.565 25.463 25.463 0 0 0-1.802 1.987 22.493 22.493 0 0 0-1.544 2.199 30.641 30.641 0 0 0-2.375 4.792 59.386 59.386 0 0 0-2.91 10.258 75.094 75.094 0 0 0-1.154 21.224l.234-.02c.206-7.02 1.134-14 2.77-20.83.217-.837.437-1.678.674-2.513.238-.835.457-1.67.713-2.49a44.814 44.814 0 0 1 1.754-4.788 30.013 30.013 0 0 1 2.265-4.406c.43-.68.899-1.331 1.408-1.952.252-.297.507-.594.78-.891.128-.137.283-.297.431-.446l.451-.457a40.034 40.034 0 0 1 3.711-3.423c.443-.353.891-.692 1.354-1.01l.238.065.071-.276.318-.21c.166-.114.335-.218.507-.319.173-.1.342-.202.514-.297.338-.19.721-.39 1.08-.594a30.129 30.129 0 0 1 4.611-1.88c.401-.12.802-.241 1.206-.348.403-.107.81-.211 1.217-.297a31.18 31.18 0 0 1 2.476-.502c1.678-.259 3.37-.41 5.068-.452a15.88 15.88 0 0 1 4.89.54 14.273 14.273 0 0 1 4.503 2.149 18.59 18.59 0 0 1 2.01 1.634 24.704 24.704 0 0 1 1.856 1.883l.196-.136a21.172 21.172 0 0 0-3.542-3.993 14.715 14.715 0 0 0-4.602-2.707 16.913 16.913 0 0 0-5.258-.96 36.324 36.324 0 0 0-5.344.19 33.86 33.86 0 0 0-5.246 1.01 32.145 32.145 0 0 0-5.676 2.184c.827-3.232 1.64-6.465 2.44-9.7a4.481 4.481 0 0 1-1.333-1.188H110c-.225.84-.448 1.685-.677 2.525a548.473 548.473 0 0 1-2.811 10.122zm-55.097 30.942c0-.315.024-.627.042-.936v-.443c.02-.32.044-.635.071-.947v-.14l.018-.22c.038-.425.083-.843.13-1.26a.746.746 0 0 1 0-.08v-.118c.042-.351.09-.699.14-1.043l.027-.184c0-.069.02-.137.032-.205.045-.297.092-.568.143-.85a43.203 43.203 0 0 1 .252-1.32l.048-.24c.086-.389.175-.772.267-1.152 0-.048.027-.099.039-.149a.892.892 0 0 0 .023-.095c.077-.297.155-.594.238-.891 0-.05.027-.101.041-.152.015-.05.039-.13.057-.196a61.366 61.366 0 0 1 .338-1.108c.107-.33.217-.66.33-.983l.018-.051v-.024c.127-.356.258-.707.394-1.054a.262.262 0 0 0 0-.045 48.988 48.988 0 0 1 .404-.983l.122-.297c.113-.258.229-.513.347-.767v-.02c.03-.069.063-.137.095-.206.31-.657.635-1.297.977-1.919 0-.027.03-.05.042-.077.012-.027.047-.08.068-.122.14-.246.279-.493.422-.734l.08-.136a33.75 33.75 0 0 1 .523-.856l.017-.03a39.686 39.686 0 0 1 1.238-1.824l.104-.142c.172-.235.347-.47.525-.699l.107-.14c.318-.41.642-.807.974-1.188l.018-.02c.332-.393.668-.776 1.012-1.15l.05-.05.04-.045c.213-.232.43-.458.647-.683l.05-.051c.36-.368.727-.73 1.099-1.081h.014c.374-.355.753-.7 1.135-1.034l.05-.045a43.93 43.93 0 0 1 3.212-2.549 50.997 50.997 0 0 1 5.938-3.657 57.75 57.75 0 0 1 2.007-1.013c.327-.158.653-.297.977-.458h.033c.326-.148.653-.297.98-.44h.04c.298-.133.595-.26.891-.385l.12-.048c.311-.13.62-.258.931-.38l.063-.027.84-.327.178-.068.89-.33.063-.02c.27-.102.54-.197.808-.298l.216-.077.85-.297.077-.214-.119.02H83.2a62.549 62.549 0 0 0-12.564 5.687 42.091 42.091 0 0 0-10.638 8.951 36.195 36.195 0 0 0-6.724 12.151 39.511 39.511 0 0 0-1.565 6.792 52.884 52.884 0 0 0-.445 6.952h.119c0-.458 0-.913.017-1.361l.015-.419z" fill="#FFF" opacity=".04"/><path d="M52.068 460.995c.104-.564.196-1.132.339-1.687.142-.556.228-1.12.365-1.673a46.19 46.19 0 0 1 2.078-6.435 36.424 36.424 0 0 1 2.97-5.942 34.553 34.553 0 0 1 1.843-2.727 34.737 34.737 0 0 1 2.078-2.549 45.342 45.342 0 0 1 10.106-8.407c3.756-2.377 7.835-4.26 12.033-5.963a18.989 18.989 0 0 1 3.708-.52 26.637 26.637 0 0 1 4.065.137c1.363.14 2.71.407 4.022.799.659.197 1.301.446 1.921.743.16.066.315.143.463.231l.455.259c.149.09.292.19.43.297l.434.297.172-.16a10.688 10.688 0 0 0-3.563-2.398c-1.316-.57-2.688-1-4.094-1.283a25.098 25.098 0 0 0-4.266-.494c-.713-.02-1.425 0-2.14.04a565.405 565.405 0 0 0 2.983-8.976c-.448-.297-.89-.639-1.339-.998l-.526 1.467-2.078 5.79a414.73 414.73 0 0 1-1.012 2.972h-.06l-.077.214-.849.297-.217.077c-.267.092-.537.187-.807.297l-.062.02-.891.33-.178.069-.84.327-.063.026c-.297.122-.62.25-.932.38l-.119.048c-.297.125-.594.253-.89.386h-.042c-.327.143-.653.297-.98.44h-.032c-.324.149-.65.297-.977.458-.668.32-1.34.66-2.007 1.013a50.997 50.997 0 0 0-5.938 3.657 43.93 43.93 0 0 0-3.212 2.549l-.05.044c-.383.335-.76.68-1.135 1.034h-.015c-.37.35-.739.713-1.098 1.082l-.05.05c-.217.226-.434.452-.648.683l-.038.045-.05.05c-.345.375-.68.758-1.013 1.15l-.018.021c-.333.392-.656.79-.974 1.188l-.107.14c-.178.229-.353.464-.525.698l-.104.143a35.46 35.46 0 0 0-1.188 1.744c0 .026-.032.053-.05.08l-.018.03a33.75 33.75 0 0 0-.523.855l-.08.137c-.142.24-.297.487-.421.734a1.822 1.822 0 0 1-.069.122c-.023.038-.026.05-.041.077a38.302 38.302 0 0 0-1.072 2.124v.02c-.119.252-.234.508-.347.767l-.122.297a48.984 48.984 0 0 0-.404.984.262.262 0 0 1 0 .044 39.73 39.73 0 0 0-.395 1.055v.024l-.017.05a47.692 47.692 0 0 0-.43 1.301c-.081.262-.161.526-.238.79-.018.066-.039.131-.057.197-.018.065-.03.1-.041.151a49.428 49.428 0 0 0-.262.987c0 .05-.026.1-.038.148-.092.38-.181.764-.267 1.153 0 .08-.033.16-.048.24-.065.298-.125.618-.184.933a17.54 17.54 0 0 0-.068.387c-.05.282-.098.564-.143.85 0 .068-.02.136-.033.204l-.026.184c-.05.345-.098.693-.14 1.043v.12a.746.746 0 0 0 0 .08 53.51 53.51 0 0 0-.13 1.259l-.018.22v.14c-.027.297-.05.626-.071.947v.443c-.018.297-.03.62-.042.936V463c0 .448-.018.89-.018 1.36h.119c.065-1.087.208-2.234.433-3.366zm75.493-204.608l.437-.49z" fill="#FFF" opacity=".04"/></g><path d="M264.528 275.995c-10.534-4.34-15.438-8.12-19.859-10.324a58.888 58.888 0 0 1-.828 6.221c-.018.101-.039.2-.057.298l-.142.716c-.074.347-.149.692-.226 1.033-.065.297-.133.568-.202.847 0 .042-.02.08-.03.119a48.285 48.285 0 0 1-.593 2.175 7.41 7.41 0 0 0-.086.297 40.528 40.528 0 0 1-.784 2.344c-.03.089-.062.175-.095.264-.14.372-.282.74-.428 1.1-.02.053-.044.103-.065.154a6.02 6.02 0 0 0-.086.205 19.41 19.41 0 0 1-.36.829l-.142.318a52.87 52.87 0 0 1-.279.594l-.062.128-.152.297-.195.386c-.087.166-.176.33-.262.493l-.098.175c-.107.196-.216.39-.326.594l-.036.063-.202.342-.074.121c-.104.17-.208.336-.297.496l-.151.23-.244.359-.121.172c-.095.134-.19.27-.297.398l-.03.042c-.175.234-.353.457-.531.674l-.078.095c-.18.217-.362.428-.546.627a12.354 12.354 0 0 1-1.85 1.667c-5.186 3.749-14.987-2.885-37.758-19.608-20.8-15.282-34.383-35.372-42.072-39.397-1.562-2.377-.175-3.922 1.597-5.018l-.08.018a144.488 144.488 0 0 0 25.592-9.07c-14.785 4.254-22.344 1.42-29.232 1.782-11.578.595-21.673 9.21-33.548 9.21-38.002 0-67.69-17.528-70.957-32.383-3.188-14.506 4.24-21.663 3.86-25.846-.594-6.536-6.829-10.695-9.797-33.274-2.97-22.579 10.984-40.404 33.548-47.831 22.564-7.428 45.72 12.18 69.472 11.883 23.751-.297 43.643-24.26 50.768-24.658 5.344-.297 17.813 2.08 21.376 20.796 3.563 18.717-.297 43.375.297 54.664.027.499.25.967.62 1.301 1.399 3.512 6.8 7.665 7.99 17.713.392 3.3-.472 7.448-2.655 11.946 2.29-4.614 3.204-8.868 2.803-12.243-1.342-11.307-8.016-15.152-8.313-19.014-.297-3.862 5.641-24.658 5.047-50.505-.593-25.847-13.063-38.324-27.313-50.802-14.251-12.478-40.971-25.253-82.239-24.658-41.267.594-88.84 35.323-97.094 51.396-10.985 21.39-15.438 37.433-5.641 76.352 7.49 29.756 28.46 62.982 73.035 74.569 13.722 3.565 30.208 4.189 48.392 2.674 1.072-.09 2.141-.19 3.2-.297 1.117 1.013-.979 2.852-2.935 4.664-5.555 3.615-12.867 11.14-22.48 18.44-11.725 8.895-58.803 34.9-70.622 52.496-11.819 17.596.297 33.17 10.665 43.841 6.213 6.387 14.488 11.949 21.248 15.942l-.46.205-.143.062-.359.164-.199.092-.353.163-.223.104-.368.172-.244.116-.385.182-.262.127-.398.193-.276.137-.415.205-.297.143-.434.22-.297.148-.445.232-.297.154-.463.247-.297.157-.48.265-.298.154-.501.297-.27.152-.535.297-.24.14-.594.356-.178.107a47.9 47.9 0 0 0-.766.475l-.778.502c-3.622 2.377-6.772 5.131-7.44 7.799-1.728 6.922 1.73 11.536 5.765 8.363 7.342 11.94 18.704 19.124 30.304 21.266a3.298 3.298 0 0 0-.057.157l-.106.297c-.027.077-.057.152-.084.226l-.089.252v.033c-.026.074-.053.149-.077.223-.024.074-.083.226-.122.339a2.829 2.829 0 0 1-.059.169v.02c-.03.087-.06.167-.086.25l-.03.083a.669.669 0 0 0-.024.072c-.044.119-.083.237-.121.35l-.045.128c-.026.083-.056.166-.083.244v.02c0 .033-.02.066-.033.099-.035.104-.068.208-.1.297 0 .023-.015.047-.021.068l-.074.223-.027.089-.077.252v.03c-.021.068-.039.134-.057.196v.018a.297.297 0 0 1 0 .042l-.05.196-.297.79c3.619 2.897 7.176 4.16 11.771 4.777 3.687.444 7.394.685 11.107.722h.487c.36.482.813.886 1.333 1.188 1.945 1.189 5.344 1.964 9.658 2.514 3.447.44 7.481.743 11.83 1.019 8.61.546 14.4.336 18.295-.018a63.97 63.97 0 0 0 3.248-.377c.64.09 1.289.108 1.933.05 1.69-.116 3.818-.573 6.14-1.233 3.247-.92 6.875-2.234 10.23-3.565a218.933 218.933 0 0 0 11.677-5.006s8.648-53.075 2.883-92.011a73.63 73.63 0 0 0-.297-1.872 211.407 211.407 0 0 0-.303-1.871c-.036-.23-.077-.46-.116-.69a97.804 97.804 0 0 0-.202-1.188l-.124-.71c-.069-.395-.14-.787-.211-1.188l-.125-.693-.228-1.227c-.042-.207-.08-.418-.122-.626l-.261-1.35-.098-.498c-.11-.553-.223-1.102-.336-1.655a248.79 248.79 0 0 0-1.288-5.888l-.045-.193a207.843 207.843 0 0 0-.455-1.926c-.13-.543-.26-1.09-.394-1.63l-.06-.238c-.136-.562-.278-1.126-.421-1.685l-.036-.145a270.485 270.485 0 0 0-1.437-5.42l-.035-.127-.446-.891.446.891a279.97 279.97 0 0 0-.677-2.4c.14.18.279.365.421.546l.196.259c.137.178.277.356.42.534a10 10 0 0 0 .216.28c.142.18.297.365.43.546l.214.27c.151.19.297.384.457.574l.158.196c.273.342.552.683.837 1.031l.041.05.754.913.11.13.104.128.19.223.17.202.187.223c.062.071.121.145.184.22l.098.11.196.231.249.297c.062.072.125.146.19.217v.021c.074.086.151.172.226.261l.332.384.116.13c.916 1.052 1.865 2.11 2.847 3.176l.077.08c.05.06.104.116.158.173l.516.555.137.146.095.1c.178.191.356.381.537.568l.054.06.092.095.026.027c.499.524 1.006 1.05 1.52 1.574l.054.054c.52.53 1.048 1.06 1.582 1.586 12.407 12.246 28.415 23.53 44.032 23.363 25.948-.28 43.794-29.75 50.138-42.362-1.733-.894-10.521-4.524-24.297-10.202zm-202.181 94.97c-.223.057-.455.125-.683.19.228-.065.46-.133.683-.19zm-1.028.298c-.21.062-.43.136-.644.205.214-.08.434-.155.644-.217v.012zm1.155-.315c8.358-2.11 13.568.891 17.633 3.615-4.065-2.733-9.278-5.736-17.633-3.627v.012zm19.067 4.572c.296.205.593.404.89.594-.288-.19-.588-.39-.89-.594zm-.68-.458l.632.425-.632-.425zm47.02-117.593v.068a130.263 130.263 0 0 1-.315 2.133c.001.08-.026.164-.037.244-.066.413-.131.835-.2 1.265v.054c-.059.38-.121.763-.186 1.156-.024.154-.05.297-.078.463-.023.134-.044.267-.068.401-.02.116-.038.235-.06.354-.053.323-.109.653-.165.986v.062c-.024.143-.048.297-.075.437 0 .06-.02.119-.032.178-.19 1.108-.392 2.258-.594 3.44 0 .087-.03.173-.048.26-.038.21-.077.424-.112.638-.024.125-.048.25-.069.374-.151.85-.311 1.717-.472 2.6-.089.49-.18.986-.273 1.485l-.133.707v.021c-.045.244-.093.487-.137.734l-.06.315v.018c-.083.451-.169.89-.255 1.36v.066c-.077.41-.154.823-.234 1.238l-.03.158c-.077.416-.157.832-.235 1.25v.033l-.014.075-.033.169c0 .065-.024.13-.039.196-.095.509-.194 1.021-.297 1.536-.02.104-.038.205-.059.297l-.516 2.704-.045.237a740132.226 740132.226 0 0 0-2.155 11.257c0 .047-.021.098-.03.145l-.24 1.272v.119c-.084.43-.164.861-.247 1.292v.11l-.526 2.766c0 .083-.032.166-.047.25-.068.368-.14.74-.21 1.11-.022.117-.045.235-.066.354l-.187.984c-.027.151-.057.297-.083.451-.063.324-.122.645-.181.966-.027.136-.054.27-.078.404l-.249 1.334c-.086.47-.175.938-.261 1.408v.06l-.045.234c-.065.35-.127.701-.193 1.055l-.035.184c-.018.1-.039.205-.057.297-.056.297-.11.594-.163.891-.027.14-.05.276-.077.416v.062c-.057.312-.116.624-.172.936-.027.155-.057.297-.084.46-.062.337-.121.675-.184 1.014l-.062.336v.032l-.25 1.37-.017.107c-.015.074-.027.151-.042.226l-.187 1.04c-.03.157-.056.314-.083.472-.056.297-.11.594-.166.915v.02l-.09.494c-.05.297-.103.594-.154.876l-.092.517c-.053.297-.107.615-.163.921 0 .095-.033.19-.05.297l-.03.178-.24 1.367c-.087.502-.179 1.01-.274 1.518 0 .054-.02.11-.032.164-.223 1.188-.47 2.418-.734 3.663 0 .05-.02.104-.032.154-.092.43-.187.862-.297 1.298-.027.11-.048.217-.074.327l-.357 1.566c-.035.154-.071.297-.11.47l-.124.537c-9.061-8.179-22.504-17.977-30.016-21.373 10.49-15.843 13.657-19.88 23.751-32.281 5.609-6.899 13.868-16.257 20.64-23.853-.181.445-.226.769-.273 1.099z" fill="#282828" fill-rule="nonzero"/><path d="M181.138 291.453l-.445-.894zm-97.513 21.182c7.511 3.396 20.954 13.194 30.015 21.373l.125-.538c.038-.157.074-.315.11-.47.122-.524.241-1.046.356-1.565.027-.11.047-.217.074-.327.095-.437.19-.867.297-1.298 0-.05.02-.104.033-.155.264-1.244.51-2.468.733-3.663 0-.053.02-.11.033-.163.095-.508.187-1.016.273-1.518l.24-1.367c0-.06.021-.119.03-.178.009-.06.036-.19.05-.297.057-.297.11-.615.164-.921l.092-.517c.05-.297.104-.594.154-.877l.09-.493v-.02c.056-.298.11-.612.166-.916.026-.157.053-.314.083-.472l.187-1.04c.015-.074.026-.151.041-.225l.018-.107.25-1.37v-.033l.062-.335c.062-.34.122-.678.184-1.013.027-.152.056-.298.083-.461.056-.297.116-.624.172-.936v-.062c.027-.14.05-.276.077-.416.054-.297.107-.594.164-.891.017-.101.038-.205.056-.297l.036-.185c.065-.353.127-.704.193-1.054l.044-.235v-.06c.086-.469.175-.938.261-1.408l.25-1.334c.024-.133.05-.267.077-.404.06-.32.119-.641.181-.965.027-.152.057-.297.083-.452l.187-.983c.021-.119.045-.238.066-.354.07-.371.142-.742.21-1.11 0-.084.033-.167.048-.25l.525-2.766v-.11c.084-.43.164-.862.247-1.292v-.119l.24-1.272c0-.047.021-.098.03-.145.465-2.446.925-4.848 1.38-7.205l.775-4.052.045-.238.517-2.703c.02-.104.038-.205.059-.297a135.62 135.62 0 0 1 .335-1.732l.033-.17.015-.074v-.033c.077-.419.157-.834.234-1.25l.03-.158c.08-.416.158-.829.235-1.239v-.065c.086-.458.172-.91.255-1.36v-.019l.06-.314c.044-.247.091-.49.136-.734v-.021l.134-.707.273-1.486c.16-.89.32-1.75.472-2.6.02-.124.044-.249.068-.373a40.762 40.762 0 0 1 .16-.898 254.6 254.6 0 0 0 .594-3.44c0-.06.02-.119.033-.178.027-.149.05-.297.074-.437v-.062c.056-.333.113-.663.166-.987.021-.118.039-.237.06-.353.023-.134.044-.268.068-.401.027-.155.053-.297.077-.464.065-.392.128-.775.187-1.155v-.054l.2-1.265c0-.08.023-.164.038-.244a112.176 112.176 0 0 0 .314-2.133v-.068c.048-.33.092-.654.134-.969-6.772 7.597-15.032 16.955-20.64 23.853-9.948 12.27-13.122 16.307-23.611 32.151z"/><path fill="#282828" fill-rule="nonzero" d="M241.198 281.081v.003zm2.218-7.139c-.065.297-.133.568-.202.847.069-.28.137-.561.202-.847zm-.231.968c-.077.319-.16.63-.244.943.083-.315.167-.627.244-.942zm-2.497 7.366l-.143.318zm.445-1.037c-.03.071-.056.14-.086.208.027-.069.057-.137.086-.205v-.003zm-4.035 7.017l.078-.095-.078.095zm6.544-15.348l.142-.715c-.038.237-.095.48-.142.715zm-3.376 10.277l-.062.128zm1.36-3.203c.033-.089.065-.175.095-.264-.03.089-.053.175-.095.264zm.879-2.612c.03-.094.056-.19.086-.296-.033.11-.057.202-.086.297zm-4.355 9.499l-.125.175zm1.903-3.247l-.196.386zm-2.316 3.82l-.03.045zm1.196-1.782c-.026.041-.053.08-.077.121l.074-.121h.003zm.237-.405l-.035.063zm-.626 1.022l-.151.232zm1.046-1.777l-.099.176z"/><path d="M238.764 285.93c-.071.116-.145.235-.22.347a6.19 6.19 0 0 0 .297-.496l-.077.149zm1.288-2.308l.152-.298-.152.298zm-1.902 3.247l.243-.36-.244.36zm1.163-1.86l-.142.246c.11-.19.22-.383.327-.594-.06.128-.122.247-.185.348zm-.38.651l.202-.342-.202.342zm.751-1.328l-.089.169c.086-.164.176-.327.262-.493-.057.11-.113.217-.173.324zm-3.132 4.551zm-52.698 4.459l-.041-.05.041.05zm53.895-5.912c.098-.128.193-.264.297-.398-.113.143-.205.273-.297.398zm-.573.746c.178-.217.356-.44.531-.675-.175.22-.353.443-.531.675zm4.952-9.616zm1.062-3.67v.018c0-.039.018-.077.03-.119a.48.48 0 0 0-.03.101zm-.249.96zm.479-1.92c.076-.341.15-.686.225-1.033-.077.356-.149.698-.226 1.033zm-1.699 5.788c.14-.38.276-.764.407-1.156-.13.404-.267.775-.407 1.156zm2.063-7.525c.018-.101.039-.2.057-.298-.018.098-.039.197-.057.298zm-2.906 9.657l-.107.239c-.027.065-.056.124-.083.187.122-.27.24-.547.36-.83l-.17.405zm-.463 1.026l-.149.297c.095-.196.187-.392.28-.594l-.131.297zm.718-1.637c.021-.05.045-.101.066-.155-.021.054-.045.104-.066.155zm.065-.158c.146-.36.298-.727.428-1.099a47.1 47.1 0 0 1-.428 1.1z" fill="#494949" fill-rule="nonzero"/><path d="M184.822 294.513l.547.647c.062.072.121.146.184.22l.543.636c.062.071.125.146.19.217l.573.665c.038.045.08.09.119.137a154.94 154.94 0 0 0 3.586 3.966l.146.158.685.728.092.095a182.131 182.131 0 0 0 3.198 3.268c.261.258.525.516.793.772l.092.09c.26.255.525.51.792.763l.06.059a130.571 130.571 0 0 0 4.376 3.984l.027.027.89.763.033.03a107.336 107.336 0 0 0 5.64 4.489c6.12 4.537 12.666 8.289 19.328 10.434h.027a41.648 41.648 0 0 0 6.285 1.512h.08c.339.05.674.098 1.013.143h.03c1.398.175 2.806.266 4.215.27 5.956-2 8.744-8.004 10.115-17.273 1.372-9.269-2.921-27.531-4.599-39.747-.017.098-.035.193-.056.297-.02.104-.039.199-.056.297-.048.24-.095.481-.143.716-.074.347-.148.692-.226 1.034-.065.297-.133.567-.201.846 0 .042-.021.08-.03.12a46.576 46.576 0 0 1-.594 2.175c-.03.094-.056.189-.086.296a40.525 40.525 0 0 1-.784 2.344c-.03.09-.062.175-.095.264-.14.372-.282.74-.427 1.1-.021.053-.045.104-.066.154a6.02 6.02 0 0 0-.086.205c-.119.297-.237.559-.359.829l-.143.318a52.87 52.87 0 0 1-.279.594l-.062.128-.151.297-.196.386c-.086.167-.175.33-.262.493l-.098.176c-.106.196-.216.389-.326.594l-.036.062-.202.342-.074.122c-.104.169-.208.335-.297.496l-.151.229-.244.359-.121.172c-.095.134-.19.27-.297.398l-.03.042c-.175.235-.353.457-.531.674l-.078.095c-.18.217-.362.428-.546.627-1.155 2.873-2.375 5.83-3.328 7.998-2.013 4.551-6.166 8.47-14.565 8.08-7.9-.365-16.463-8.71-24.79-17.527-10.362-10.972-20.124-23.408-25.025-30.645 4.103 9.153 8.167 20.226 11.617 32.26l.425.553.195.259c.137.178.277.356.42.534.07.096.142.188.216.28.142.181.297.365.43.546l.214.27c.151.19.297.384.457.574l.158.196c.273.342.552.683.837 1.031l.041.05c.283.345.571.693.864 1.043l.107.164z" fill="#494949" fill-rule="nonzero"/><path d="M178.528 282.608c3.322 1.985 6.624 3.346 8.016 2.145 1.782-1.533-1.956-6.271-7.01-10.87-2.428-2.21-4.177-3.708-5.536-4.471 1.57 4.183 3.09 8.6 4.53 13.196zm14.302 10.915c-2.284 2.591 3.414 9.062 5.64 11.438 2.227 2.377 7.648 6.174 10.094 3.565 2.227-2.376-4.156-9.06-6.68-11.437-2.523-2.377-6.828-6.09-9.055-3.566zm27.61 20.5c2.022 6.74 7.422 9.358 11.727 9.506 4.305.149 9.204-2.822 8.165-8.467-1.04-5.644-7.868-9.804-12.767-8.912-5.278.96-8.016 4.902-7.125 7.873zm22.91-40.057c.063-.514-1.07 4.415-1.03 3.984a42.885 42.885 0 0 1-1.122 3.134c-.02.054-.044.104-.065.158-.083.205-.17.407-.255.594l-.107.238c-.074.172-.148.338-.226.505l-.13.297c-.072.148-.14.297-.211.437l-.152.297-.195.386c-.057.107-.113.217-.173.324-.059.107-.121.231-.187.344-.065.113-.121.223-.184.333l-.178.297-.205.342-.166.27-.19.297c-.89 4.338.246 8.975 2.402 8.975 4.703.03 1.582-14.875 2.375-21.212z" fill="#99C7C9" fill-rule="nonzero"/><path d="M113.64 334.005c.042-.176.08-.348.122-.52v-.018c.038-.157.074-.315.11-.472.122-.525.241-1.047.356-1.566.027-.113.05-.223.074-.333.095-.436.19-.867.297-1.298 0-.053.02-.107.033-.157.02-.104.044-.205.065-.298.11-.518.217-1.034.318-1.547l.035-.176c.092-.466.184-.93.27-1.39l.045-.244c0-.053.02-.11.033-.166.095-.508.187-1.016.273-1.518.086-.502.181-1.031.27-1.545.018-.092.033-.187.05-.28l.5-2.807v-.02l.436-2.428v-.038l.032-.188.268-1.485v-.033l.249-1.36.08-.443v-.018l.184-.998c.024-.134.05-.267.074-.404.054-.297.107-.594.164-.891v-.015l.053-.297c.077-.413.155-.826.229-1.24v-.017c0-.071.026-.146.038-.217l.526-2.813c.027-.128.05-.259.074-.387.06-.32.119-.641.181-.965v-.024c.027-.136.05-.273.077-.41v-.018c.347-1.836.692-3.657 1.036-5.463v-.068l.253-1.325v-.072l1.66-8.654c.26-1.37.519-2.721.774-4.052l.045-.238c.095-.487.187-.971.279-1.453l.027-.136c.062-.324.121-.648.184-.969l.026-.145.063-.324c.038-.208.08-.413.119-.621 0-.083.03-.164.047-.247l.125-.668c.015-.068.026-.134.038-.2l.033-.169.02-.106c.078-.42.158-.835.235-1.251l.03-.158c.08-.416.157-.829.235-1.239v-.065c.017-.086.032-.172.047-.258.048-.238.092-.476.137-.713l.07-.39.063-.332.071-.384.066-.35c.044-.247.092-.49.136-.734l.063-.336c.071-.389.142-.772.21-1.152l.208-1.135.078-.434.103-.567c.033-.188.057-.298.084-.464l.07-.38c0-.06.022-.119.03-.175.03-.155.057-.298.084-.464 0-.089.032-.175.047-.264.015-.09.036-.19.05-.297l.08-.446c.033-.184.066-.365.096-.547l.089-.502c.05-.297.098-.561.148-.84.027-.17.057-.34.086-.506l.054-.314c0-.063.024-.125.032-.185.027-.148.051-.297.075-.436v-.063c.023-.145.047-.297.074-.43.027-.134.044-.28.068-.42 0-.044.015-.092.024-.136.02-.119.042-.24.06-.36.017-.118.044-.267.068-.4.023-.134.053-.319.077-.479l.071-.43.116-.726v-.06c.024-.145.044-.296.068-.436.024-.14.042-.273.065-.407.024-.133.045-.297.066-.422 0-.086.024-.166.038-.25.015-.082.015-.103.024-.157l.062-.404c.018-.133.04-.267.06-.398.02-.13.038-.264.056-.395.018-.13.039-.255.057-.38.02-.134.038-.268.056-.398v-.072c0-.095.027-.19.039-.297l.089-.635v-.051c-6.772 7.597-15.032 16.955-20.64 23.853-10.094 12.4-13.262 16.438-23.751 32.282 7.511 3.396 20.954 13.194 30.015 21.372l.116-.03z"/><path fill="#282828" fill-rule="nonzero" d="M126.748 264.629v.062zm.57-3.441v.06zm.564-3.719v.071zm-.909 5.814c-.017.119-.038.24-.059.36.02-.12.039-.238.06-.354v-.006zm.582-3.61c0 .083-.026.164-.038.25.012-.086.024-.17.038-.25zm-.436 2.733c-.024.16-.05.318-.077.479.026-.17.053-.324.077-.479zm-2.663 14.884v.066-.03zm.318-1.693l-.063.333v-.018c.024-.104.042-.214.063-.315zm1.888-10.469c0 .06-.021.122-.033.184 0-.06.02-.119.033-.178v-.006zm-2.717 14.875l-.02.107.014-.074zm2.081-11.251c0 .09-.032.176-.047.265a8.35 8.35 0 0 0 .047-.265zm-.146.903l-.07.38c.009-.13.032-.255.07-.38zm-.833 4.48l-.137.734v-.02l.137-.714zm60.263 34.57c.112.552.225 1.102.335 1.654-.11-.552-.223-1.09-.336-1.654zm2.125 11.702zm-63.255-41.655l.03-.157-.03.157zm-1.241 6.528l.044-.238-.044.237zm-5.113 26.96c.054-.297.107-.594.164-.891-.057.297-.11.594-.164.891zm1.096-5.885c.06-.321.119-.642.181-.966-.05.315-.122.645-.181.966zm68.21 12.171zm-.653-3.773c.071.396.142.788.21 1.189-.068-.401-.139-.793-.21-1.189zm-62.587-34.473c0 .065-.024.13-.039.198.015-.065.027-.13.039-.196v-.003zm60.128 22.536c.436 1.89.853 3.791 1.25 5.704-.403-1.913-.82-3.814-1.25-5.704zm1.723 8.043c.089.448.175.89.261 1.348-.086-.448-.172-.9-.261-1.348zm-2.162-9.909c.135.555.267 1.114.395 1.676a302.84 302.84 0 0 1-.395-1.675zm2.545 11.884l.228 1.227-.228-1.227zm.688 3.812zm-4.168-19.501c.143.559.297 1.123.422 1.684-.137-.552-.28-1.125-.422-1.684zm-94.173 113.06a86.183 86.183 0 0 1-.181.508c.02-.056.041-.113.06-.17a3.33 3.33 0 0 1 .121-.338zm-.193.529c-.042.116-.08.226-.116.333l.03-.084c.027-.083.056-.163.086-.25zm-.627 1.854l.075-.223-.075.223zm95.474-113.521c.134.54.264 1.087.395 1.631-.13-.544-.261-1.09-.395-1.63zM87.974 411.616l-.089.265v-.021a3.17 3.17 0 0 0 .09-.244zm.045-.128c.038-.112.077-.231.121-.35-.044.119-.083.238-.121.35zm-.392 1.189c-.03.092-.057.181-.08.264l.08-.264zm-.214.745l.05-.196-.05.196zm36.149-131.408l-.062.324c.024-.104.041-.22.062-.324zm-35.71 129.965l-.121.374c0-.02 0-.045.02-.068l.101-.306zm-.439 1.443l-.285.79zm26.462-80.424c-.036.157-.072.315-.11.472.038-.157.074-.315.11-.47v-.002zM87.538 412.97c-.024.075-.042.146-.063.215v-.018c.024-.062.042-.128.063-.196zm1.19-3.499l.107-.297c-.098.267-.19.526-.279.775l.09-.252c.026-.074.056-.149.082-.226zm31.762-111.399l-.253 1.325v-.033c.09-.43.17-.861.253-1.292zm-6.188 33.03c-.023.11-.047.22-.074.333.03-.116.05-.223.074-.333zm3.448-18.446c-.063.333-.123.665-.185.998.056-.297.116-.624.172-.936l.012-.062zm-.27 1.471l-.25 1.36.062-.335.187-1.025zm1.112-6.022l.25-1.334-.526 2.813v-.06c.101-.48.19-.95.276-1.42zm-1.365 7.403l-.268 1.485.018-.106zm1.048-5.701c-.075.413-.152.826-.229 1.239l.036-.184c.08-.354.127-.702.193-1.055zm1.163-6.207c.072-.37.143-.742.211-1.11 0-.084.033-.167.048-.25a27576.664 27576.664 0 0 0-.511 2.698l.187-.984c.02-.119.045-.237.065-.353zm-4.818 26.043c0 .051-.02.104-.033.158.012-.054.012-.107.033-.158zm1.615-8.615c.05-.297.104-.594.155-.876l.089-.494-.5 2.808c.057-.297.11-.615.164-.921l.092-.517zm-.305 1.723c-.09.514-.179 1.03-.271 1.545l.24-1.367.03-.178zm4.824-26.069c0-.048.02-.099.03-.146.464-2.446.925-4.848 1.38-7.204l-1.66 8.648v-.033l.25-1.265zm-5.368 29.132c0 .056-.02.113-.033.166 0-.053.021-.11.033-.163v-.003zm1.344-7.564l.188-1.04-.437 2.428c.057-.298.11-.612.167-.915.03-.158.053-.315.083-.473zm9.629 26.714l-.196-.193.196.193zm-12.386 59.338z"/><path d="M83.625 312.635c7.511 3.396 20.954 13.194 30.015 21.373l.125-.538c.038-.157.074-.315.11-.47.122-.524.241-1.046.356-1.565.027-.11.047-.217.074-.327.095-.437.19-.867.297-1.298 0-.05.02-.104.033-.155.264-1.244.51-2.468.733-3.663 0-.053.02-.11.033-.163.095-.508.187-1.016.273-1.518l.24-1.367c0-.06.021-.119.03-.178.009-.06.036-.19.05-.297.057-.297.11-.615.164-.921l.092-.517c.05-.297.104-.594.154-.877l.09-.493v-.02c.056-.298.11-.612.166-.916.026-.157.053-.314.083-.472l.187-1.04c.015-.074.026-.151.041-.225l.018-.107.25-1.37v-.033l.062-.335c.062-.34.122-.678.184-1.013.027-.152.056-.298.083-.461.056-.297.116-.624.172-.936v-.062c.027-.14.05-.276.077-.416.054-.297.107-.594.164-.891.017-.101.038-.205.056-.297l.036-.185c.065-.353.127-.704.193-1.054l.044-.235v-.06c.086-.469.175-.938.261-1.408l.25-1.334c.024-.133.05-.267.077-.404.06-.32.119-.641.181-.965.027-.152.057-.297.083-.452l.187-.983c.021-.119.045-.238.066-.354.07-.371.142-.742.21-1.11 0-.084.033-.167.048-.25l.525-2.766v-.11c.084-.43.164-.862.247-1.292v-.119l.24-1.272c0-.047.021-.098.03-.145.465-2.446.925-4.848 1.38-7.205l.775-4.052.045-.238.517-2.703c.02-.104.038-.205.059-.297a135.62 135.62 0 0 1 .335-1.732l.033-.17.015-.074v-.033c.077-.419.157-.834.234-1.25l.03-.158c.08-.416.158-.829.235-1.239v-.065c.086-.458.172-.91.255-1.36v-.019l.06-.314c.044-.247.091-.49.136-.734v-.021l.134-.707.273-1.486c.16-.89.32-1.75.472-2.6.02-.124.044-.249.068-.373a40.762 40.762 0 0 1 .16-.898 254.6 254.6 0 0 0 .594-3.44c0-.06.02-.119.033-.178.027-.149.05-.297.074-.437v-.062c.056-.333.113-.663.166-.987.021-.118.039-.237.06-.353.023-.134.044-.268.068-.401.027-.155.053-.297.077-.464.065-.392.128-.775.187-1.155v-.054l.2-1.265c0-.08.023-.164.038-.244a112.176 112.176 0 0 0 .314-2.133v-.068c.048-.33.092-.654.134-.969-6.772 7.597-15.032 16.955-20.64 23.853-9.948 12.27-13.122 16.307-23.611 32.151zm97.513-21.182l-.445-.894z"/><path d="M65.182 368.687l.463-.247-.463.247zm-.757.422l.481-.265-.481.265zm-.802.439l.502-.297c-.166.107-.336.2-.502.297zm-.804.461l.534-.297-.534.297zm3.12-1.723l.446-.232-.446.232zm.736-.38l.434-.22-.434.22zm-4.691 2.599l.594-.356-.594.356zm120.377-79.014c.151.19.297.384.457.574l.158.196a99.318 99.318 0 0 1-.87-1.093l.041.053.214.27zm-.644-.817c.095.125.193.25.297.372l-.653-.835c.047.062.095.125.145.184.05.06.137.187.21.28zm.291.372l.098.122-.098-.122zM67.394 367.543l.416-.205-.416.205zm113.687-77.683l.098.125c-.24-.297-.48-.62-.712-.927.136.178.276.363.418.544l.196.258zM61.04 371.087zm120.14-81.102l.175.226-.176-.226zM69.962 366.31l.353-.163-.353.163zm-1.22.57l.386-.18-.386.18zm.629-.297l.368-.172-.368.172zm1.143-.531l.36-.164-.36.164zm.502-.226l.46-.205-.46.205zm-2.933 1.375l.398-.193-.398.193z" fill="#282828" fill-rule="nonzero"/><path d="M61.806 370.612l.179-.107-.179.107zm8.509-4.468l.2-.092-.2.092zm-3.218 1.542l.297-.143-.297.143zm-.713.368l.297-.148-.297.148zm4.489-2.166l.143-.062-.143.062zm-3.067 1.45l.277-.137-.277.137zm1.322-.638l.243-.117-.243.116zm-3.483 1.74l.297-.154-.297.154zm-.754.404l.297-.157-.297.157zm-.763.419l.297-.154-.297.154zm4.352-2.255l.262-.127-.262.127zm1.26-.597l.222-.104-.223.104zm-7.162 3.738l.24-.14-.24.14zm.775-.449l.27-.152-.27.152z" fill="#494949" fill-rule="nonzero"/><path d="M82.437 376.114c5.047 3.268 14.548 11.09 16.525 9.01 1.977-2.079-5.145-7.028-8.907-9.307-3.429-2.08-12.71-7.13-19.045-10.475l.466.279-.46.205-.143.062-.359.164-.199.092-.353.163-.223.104-.368.172-.243.116-.386.182-.262.127-.397.193-.277.137-.415.205-.297.143-.434.22-.296.148-.446.232-.297.154-.463.247-.297.157-.48.265-.298.154-.501.297-.27.152-.535.297-.24.14-.594.356-.178.107a47.9 47.9 0 0 0-.766.475l-.778.502c11.501-3.891 17.472 1.453 22.216 4.525z" fill="#494949" fill-rule="nonzero"/><path d="M181.138 291.444l-.445-.891c7.437 35.353 8.87 78.431 5.753 99.821-1.748 12.006-3.512 21.842-4.931 25.08-4.338-.507-7.363-5.26-8.646-9.655-2.787-9.545-1.822-19.715-1.457-29.652.424-11.402.027-22.82-1.188-34.165a240.128 240.128 0 0 0-2.434-16.934c-.639-3.536-.93-10.511-2.874-14.15-.045-.351-.086-.702-.13-1.05-2.376-18.716-8.314-46.94-12.767-63.874 2.672 13.667 5.344 36.542 7.422 73.678 2.078 37.136-4.723 85.58-6.802 99.246-.33 2.16-.668 3.966-1.018 5.496a63.97 63.97 0 0 0 3.248-.377c.64.09 1.289.107 1.933.05.208 0 .421-.033.641-.056l.543-.072h.128c.46-.065.941-.151 1.443-.252l.362-.077.333-.072.38-.086.347-.083.371-.092c.235-.06.472-.119.713-.184l.89-.24c3.248-.922 6.876-2.235 10.231-3.566l.594-.235.324-.127.19-.078.062-.023.243-.099.2-.08.127-.053.297-.116.276-.113.32-.13.235-.099.267-.11.113-.047.166-.069.327-.133.208-.09.297-.115.199-.083.041-.018.392-.167h.024l.1-.044.34-.143.154-.068.296-.119.17-.074.032-.015.333-.143.095-.041.05-.021.297-.134c.05-.02.104-.041.152-.065l.32-.137.107-.047.297-.125.116-.05h.033l.276-.122c2.226-.984 3.64-1.646 3.64-1.646s8.648-53.075 2.882-92.012c-.09-.625-.19-1.25-.297-1.871l-.095-.594c-.068-.425-.136-.85-.207-1.278-.036-.229-.078-.46-.116-.69-.066-.397-.134-.795-.202-1.187l-.125-.71c-.068-.396-.14-.788-.21-1.189l-.125-.692-.229-1.227c-.041-.208-.08-.419-.122-.627l-.26-1.349-.099-.499c-.11-.552-.223-1.102-.335-1.655a248.785 248.785 0 0 0-1.288-5.888l-.045-.193c-.131-.562-.263-1.121-.395-1.676-.018-.083-.039-.166-.06-.25-.13-.543-.26-1.09-.394-1.63l-.06-.238a155.09 155.09 0 0 0-.421-1.684l-.036-.146a270.485 270.485 0 0 0-1.437-5.419l-.036-.124-.044-.036zm93.142-11.424l-1.893-.784-.098-.038c-1.345-.559-4.516 6.052-4.991 7.068-.73 1.562-1.452 3.069-2.176 4.584a41.997 41.997 0 0 1-2.485 4.605c-1.15 1.818-2.375 3.66-4.097 4.928-2.132 1.566-4.335 1.456-6.814 1.07-2.82-.44-4.002-.339-6.398 1.28-1.891 1.28-5.64 3.087-7.953 3.518-3.296.615-6.677.505-10.03.389-4.42-.149-8.927-.315-13.062-1.854-3.061-1.135-3.441-1.022-6.152-2.846-5.938-3.984-10.95-9.843-15.833-15.05-8.705-9.285-19.2-29.71-30.087-42.187 4.391 9.507 14.574 31.476 18.262 44.346 12.116 15.927 35.609 39.81 58.28 39.575.42 0 .84-.017 1.255-.038.14 0 .276-.018.413-.027.279 0 .558-.033.834-.056.163 0 .323-.03.484-.048.252-.024.502-.047.748-.077l.51-.068.713-.101.517-.087c.231-.041.463-.08.691-.124l.517-.104c.229-.048.457-.095.683-.149l.508-.119.682-.172.49-.134.69-.199.468-.142c.238-.075.472-.152.71-.232.145-.048.297-.095.436-.149.247-.086.496-.175.74-.267l.388-.143c.273-.104.54-.214.81-.323.102-.042.206-.08.298-.125.326-.134.65-.277.97-.42l.131-.059a43.902 43.902 0 0 0 3.32-1.672l.047-.03c.341-.19.68-.383 1.015-.594l.119-.071c.315-.188.624-.378.932-.57l.146-.093c.303-.198.6-.396.89-.594l.143-.092.89-.61.122-.085c.297-.214.609-.428.912-.648l.086-.065c.318-.232.632-.467.944-.707l.033-.024a71.974 71.974 0 0 0 9.996-9.424c7.511-8.485 12.903-17.917 15.836-23.746-1.31-.68-6.449-2.846-14.59-6.215zm-90.063-63.606l-.532.256.532-.256zm-1.479.707l-.525.25.525-.25zm-29.988 2.13c-11.58.595-21.674 9.21-33.55 9.21-26.321 0-48.647-8.408-60.974-18.512a8.16 8.16 0 0 1-.333-.204c-13.657-9.21-14.93-17.291-17.22-21.39-3.38-6.061.161-12.502-3.826-14.974-9.352-5.793-27.908-58.966-8.016-91.349 2.485-4.05 8.666-7.724 12.14-11.126 2.672-2.63 2.479-5.122 5.614-7.368 25.313-18.122 64.077-24.325 85.112-17.157-19.298-6.535-24.52-8.057-20.66-11.325 3.663-3.101 39.688-1.117 48.164 4.175-9.023-6.744-7.696-12.246-43.806-13.696-.558 0-1.122 0-1.687.015-41.267.594-88.829 35.323-97.082 51.396-10.985 21.39-15.438 37.433-5.641 76.352 7.49 29.756 28.46 62.982 73.035 74.569 13.722 3.565 30.208 4.189 48.392 2.674a147.027 147.027 0 0 0 49.557-13.072c-14.776 4.26-22.335 1.429-29.22 1.782zm37.087-5.742c.062-.033.124-.066.184-.101l-.184.1zm-4.189 2.198l-.452.223.452-.223zm3.174-1.643l-.357.19.357-.19zm-1.782.927l-.056.033.056-.033zm-.686 99.07l.125.692-.125-.692z" fill="#091426" fill-rule="nonzero" opacity=".3"/><path d="M185.259 308.52c0 .063.023.125.038.185a.601.601 0 0 0-.038-.185zm.386 1.84l.098.499-.098-.5zm.359 1.847c.041.208.08.42.122.627-.042-.208-.08-.419-.122-.627zm.686 3.729l.124.71-.124-.71zm.326 1.901c.039.229.08.46.116.69-.036-.23-.077-.461-.116-.69zm-3.04-15.214l.045.193-.045-.193zm3.361 17.181zM182.61 297l.036.145-.036-.146zm.912 3.698l.06.25-.06-.25zm-.454-1.868c.02.08.038.157.059.237l-.06-.238zm-64.149 7.537c-.024.127-.048.258-.074.386.023-.134.05-.268.077-.404l-.003.018zm-.639 3.423v.017l.045-.235a2.809 2.809 0 0 0-.044.217zm9.534-51.852c.02-.133.038-.267.056-.398-.018.13-.036.265-.056.398zm-9.821 53.411v.018c.017-.101.038-.205.056-.297l-.056.279zm1.19-6.394c-.027.137-.05.274-.077.41v.024c.027-.151.056-.297.083-.451l-.006.017zm-3.797 20.859c.095-.508.187-1.016.273-1.518-.086.502-.17 1.016-.273 1.518zm-.077.41c-.086.46-.178.924-.27 1.39l-.036.176c-.101.51-.207 1.027-.318 1.547-.02.102-.044.203-.065.298.264-1.245.51-2.47.733-3.664l-.044.253zm12.143-65.879c-.024.133-.045.27-.066.407-.02.136-.044.297-.068.436l.199-1.265c-.02.136-.045.279-.065.422zm-1.556 9.135c0 .057-.021.116-.03.175.036-.214.074-.427.113-.638-.027.145-.054.309-.083.463zm-5.674 29.985v-.077zm5.49-28.965c-.033.186-.068.376-.104.567-.024.142-.05.297-.077.433-.069.375-.14.755-.208 1.135.16-.891.32-1.75.472-2.6-.027.155-.053.316-.083.464zm-8.485 45.008v-.033zm-.3 1.664v.038c.015-.074.026-.151.041-.225l-.041.187zm.896-4.932c-.023.137-.05.27-.074.404.027-.14.05-.276.077-.416l-.003.012zm10.187-55.69l-.09.637c0 .092-.026.187-.038.297.047-.33.092-.654.134-.969l-.006.036zm-10.442 57.122l-.08.443c.027-.152.056-.297.083-.46l-.003.017zm-1.588 8.8c-.018.092-.033.187-.05.279.017-.095.035-.19.05-.297v.018zm-1.678 8.628c.095-.437.19-.868.297-1.3-.104.432-.199.86-.297 1.3zm13.455-72.782c-.017.131-.038.262-.056.396-.018.133-.042.264-.06.398l-.062.404c0 .053-.018.104-.024.157.093-.594.18-1.172.259-1.735-.018.125-.036.253-.057.38zm-3.547 20.277c.08-.416.157-.83.234-1.24-.077.423-.154.824-.235 1.24zm-10.57 55.41v.003zm10.305-54.002c.077-.419.158-.835.235-1.25-.08.415-.158.831-.235 1.25zm.695-3.683c-.045.237-.09.474-.137.712-.014.086-.03.172-.047.259.086-.458.172-.91.255-1.361l-.071.39zm1.936-10.693c-.03.166-.06.336-.086.505-.051.28-.098.558-.149.84l-.089.503c-.03.181-.062.362-.095.546l-.08.446c0 .095-.033.19-.05.297.21-1.188.412-2.332.593-3.44l-.044.303zm.086-.499l.074-.437-.074.437zm-1.553 8.666l-.062.336.273-1.486c-.068.38-.14.76-.211 1.15zm-11.347 59.694c-.042.172-.08.344-.122.52l.125-.538-.003.018zm13.428-71.515l-.071.43c.065-.392.128-.775.187-1.155-.039.237-.077.487-.116.725zm-2.345 13.241l-.072.383c.045-.246.093-.49.137-.734-.02.116-.044.241-.065.35zm2.128-11.931c.024-.134.045-.268.069-.401-.024.133-.045.267-.069.4zm-4.809 26.049zm-1.672 8.725v-.086zm2.981-15.573c-.062.32-.122.644-.184.968l-.027.137c-.092.481-.184.965-.279 1.453l.517-2.704-.027.146zm.256-1.337a7.209 7.209 0 0 0-.048.246l-.119.621c.097-.517.196-1.029.297-1.536l-.13.669zm-9.854 51.851zm10.017-52.718l.032-.17c-.011.044-.02.113-.032.17zm2.998-16.501c-.023.14-.047.28-.068.419-.02.14-.05.297-.074.43.056-.332.113-.662.166-.986-.009.045-.015.092-.024.137zM87.538 412.968v-.03zm-.075.258zm.817-2.492v-.021zm.273-.773v.021-.033zm-.413 1.174a.668.668 0 0 1 .024-.071l-.024.07zm.752-2.118l-.054.142c.018-.053.036-.104.057-.157l-.003.015zm-.873 2.471l-.045.128.045-.128zm-.366 1.1l-.026.089zm.199-.612c0-.033.024-.066.033-.098a.891.891 0 0 1-.033.098z" fill="#091426" fill-rule="nonzero" opacity=".3"/><path d="M136.667 249.851s0-.02-.22-2.79c-2.12 2.378-5.094 5.696-8.431 9.44-.042.314-.087.638-.134.968v.068c-.018.13-.036.265-.056.398-.08.559-.166 1.137-.259 1.735 0 .08-.027.164-.038.244-.066.413-.131.835-.2 1.265v.054c-.059.38-.121.763-.186 1.156-.024.154-.05.297-.078.463-.023.134-.044.267-.068.401-.02.116-.038.235-.06.354-.053.323-.109.653-.165.986v.062c-.024.143-.048.297-.075.437 0 .06-.02.119-.032.178-.19 1.108-.392 2.258-.594 3.44 0 .087-.03.173-.048.26-.038.21-.077.424-.112.638-.024.125-.048.25-.069.374-.151.85-.311 1.717-.472 2.6-.089.49-.18.986-.273 1.485l-.133.707v.021c-.045.244-.093.487-.137.734l-.06.315v.018c-.083.451-.169.89-.255 1.36v.066c-.077.41-.154.823-.234 1.238l-.03.158c-.077.416-.157.832-.235 1.25v.033l-.014.075-.033.169c0 .065-.024.13-.039.196-.095.509-.194 1.021-.297 1.536-.02.104-.038.205-.059.297l-.516 2.704-.045.237a740132.226 740132.226 0 0 0-2.155 11.257c0 .047-.021.098-.03.145l-.24 1.272v.119c-.084.43-.164.861-.247 1.292v.11l-.526 2.766c0 .083-.032.166-.047.25-.068.368-.14.74-.21 1.11-.022.117-.045.235-.066.354l-.187.984c-.027.151-.057.297-.083.451-.063.324-.122.645-.181.966-.027.136-.054.27-.078.404l-.249 1.334c-.086.47-.175.938-.261 1.408v.06l-.045.234c-.065.35-.127.701-.193 1.055l-.035.184c-.018.1-.039.205-.057.297-.056.297-.11.594-.163.891-.027.14-.05.276-.077.416v.062c-.057.312-.116.624-.172.936-.027.155-.057.297-.084.46-.062.337-.121.675-.184 1.014l-.062.336v.032l-.25 1.37-.017.107c-.015.074-.027.151-.042.226l-.187 1.04c-.03.157-.056.314-.083.472-.056.297-.11.594-.166.915v.02l-.09.494c-.05.297-.103.594-.154.876l-.092.517c-.053.297-.107.615-.163.921 0 .095-.033.19-.05.297l-.03.178-.24 1.367c-.087.502-.179 1.01-.274 1.518 0 .054-.02.11-.032.164-.223 1.188-.47 2.418-.734 3.663 0 .05-.02.104-.032.154-.092.43-.187.862-.297 1.298-.027.11-.048.217-.074.327l-.357 1.566c-.035.154-.071.297-.11.47l-.124.537a93.144 93.144 0 0 1 4.613 4.424c1.942 1.164 4.575 3.17 7.34 5.79.19.181.38.362.57.55l.195.193a61.06 61.06 0 0 1 2.901 3.042c1.49-17.309 7.44-82.124 7.268-98.025z" fill="#091426" fill-rule="nonzero" opacity=".3"/><path d="M181.138 291.453l-.445-.894z"/><path d="M87.128 414.213c.445.36.89.689 1.339.998 3.174 2.198 6.404 3.241 10.433 3.779 3.686.444 7.394.685 11.106.722h.487c.36.481.814.886 1.333 1.188 1.945 1.189 5.344 1.964 9.658 2.514-.496-1.376-1.324-4.005-1.045-8.574.033-.562-.128-1.26-.143-2.08 2.862-1.001 7.6-2.614 9.62-4.973 6.136-7.163 9.574-18.625 8.033-26.792a22.218 22.218 0 0 0 1.927-6.206c1.188-8.369-2.72-16.66-7.766-23.31.338 1.655.58 3.327.724 5.01 1.241 15.118-7.502 30.406-20.842 37.617-13.339 7.21-30.493 6.304-43.41-1.652-5.175-3.188-9.83-8.021-10.018-14.4-1.909 3.402-2.336 7.008-2.559 10.695.085.005.17.005.255 0h.066l.231-.032.098-.018.214-.05.125-.04c.068-.017.133-.041.202-.065l.151-.062.184-.08.178-.09c.054-.03.11-.056.164-.089.053-.032.148-.089.22-.136l.133-.083c.119-.08.237-.167.356-.262a48.322 48.322 0 0 0 5.344 7.151c.837.923 1.7 1.803 2.589 2.641a45.334 45.334 0 0 0 10.626 7.49c.685.347 1.38.677 2.078.986a43.105 43.105 0 0 0 9.646 2.998 3.298 3.298 0 0 0-.057.157l-.107.297c-.026.078-.056.152-.083.226l-.089.253v.032c-.026.075-.053.149-.077.223-.024.074-.083.226-.122.339a3.832 3.832 0 0 1-.059.17v.02c-.03.086-.06.166-.086.25l-.03.083a.669.669 0 0 0-.024.07c-.044.12-.083.239-.121.352l-.045.127c-.027.083-.056.167-.083.244v.02c0 .033-.02.066-.033.099-.035.104-.068.208-.1.297 0 .024-.015.047-.021.068l-.075.223-.026.09-.077.252v.03c-.021.068-.039.133-.057.195v.018a.297.297 0 0 1 0 .042l-.05.196-.315.832zm26.845-9.911h-.021l.038-.021-.017.02zM71.476 365.62l-.425.188.425-.187z" fill="#091426" fill-rule="nonzero" opacity=".3"/><path d="M99.41 374.976c-1.971-3.069-5.228-5.027-8.366-6.877l-14.548-8.59c-8.016-4.732-16.302-9.69-21.637-17.331-5.335-7.641-10.148-20.42-4.326-27.695-2.998 1.783-5.75 2.588-7.05 4.712a1.422 1.422 0 0 1-2.613-.38c-.315-1.361-.134-2.674.231-4.52.805-4.028 4.353-9.277 6.844-12.545 9.613-12.615 16.088-15.294 28.961-25.36 4.293-3.357 16.45-10.08 19.996-14.218-18.704 11.883-48.298 30.226-57.327 43.672-11.816 17.593.297 33.17 10.665 43.841 6.213 6.387 14.488 11.949 21.248 15.942l-.466-.28c6.335 3.352 15.616 8.396 19.045 10.476 3.762 2.279 10.887 7.228 8.907 9.308-.345.362-.92.419-1.66.258 4.302 1.506 4.89-6.07 2.096-10.413zm-31.72-7.581l.084-.042zm.684-.333l-.196.095.196-.095zm1.989-.936l-.238.107.238-.107zm.522-.241l-.297.128.297-.128zm-2.007.936l-.092.045.092-.045zm.942-.448l-.164.074.163-.074z" fill="#091426" fill-rule="nonzero" opacity=".3"/><path d="M81.644 311.349c.829.353 1.553.671 2.218.927 10.3-15.544 13.503-19.608 23.514-31.922 6.757-8.319 17.362-20.202 24.58-28.265 4.71-4.813 4.71-5.506 6.406-9.59-13.206 12.967-26.865 25.971-38.892 40.032-8.744 10.211-19.524 21.194-31.767 26.738 3.725-.594 10.462.594 13.941 2.08z" fill="#091426" fill-rule="nonzero" opacity=".3"/><path d="M132.665 234.902c-5.555 3.616-12.867 11.14-22.48 18.44-3.67 2.784-10.798 7.24-19.224 12.59.323-.053.647-.124.965-.198a55.271 55.271 0 0 0 21.782-10.484c4.157-3.301 7.85-7.202 12.194-10.262 4.343-3.06 9.622-5.27 14.886-4.545a76.98 76.98 0 0 0 9.735.793c2.345 0 4.554-1.188 6.787-1.646.849.891 1.78 1.738 2.508 2.531 3.655 3.922 7 8.117 10.43 12.234 6.686 8.022 13.826 16.138 23.436 20.69 4.653 2.204 9.623 3.452 14.717 4.206-3.402-2.418-7.202-5.19-11.457-8.318-19.79-14.54-33.046-33.432-40.911-38.699a6.234 6.234 0 0 0-.327.383c-.089-.11-.172-.222-.27-.335-2.402-2.805-.917-4.558 1.033-5.764a148.289 148.289 0 0 1-20.868 3.726c1.116 1.007-.98 2.846-2.936 4.658z" fill="#091426" fill-rule="nonzero" opacity=".3"/><path d="M35.386 195.835a93.728 93.728 0 0 1-5.412-6.833 39.16 39.16 0 0 0-2.527.561 96.911 96.911 0 0 0 9.127 11.082 85.275 85.275 0 0 1 2.348-.987 90.458 90.458 0 0 1-3.536-3.823zm190.704-19.837a28.62 28.62 0 0 1-2.375 6.774 29.127 29.127 0 0 0 2.449-6.777l-.074.003zm-55.536 43.663a146.716 146.716 0 0 1-38.338 8.503c-6.086.508-11.934.764-17.382.764-11.442 0-21.608-1.135-30.218-3.37-16.444-4.272-30.58-11.8-42.11-22.424a54.07 54.07 0 0 0-2.278 1.13c11.063 10.368 25.42 18.82 43.792 23.594 9.147 2.377 19.526 3.446 30.814 3.446 5.64 0 11.516-.267 17.578-.772a146.941 146.941 0 0 0 49.58-13.072 59.408 59.408 0 0 1-11.438 2.201zM24.46 185.086c.853-.16 1.708-.297 2.557-.422a107.81 107.81 0 0 1-13.728-31.952c-4.68-18.6-6.202-32.145-4.917-43.906C9.592 97.64 13.4 88.428 18.74 78.033 22.896 69.932 37.4 57.371 54 47.487c12.021-7.157 35.763-19.216 59.743-19.56.909 0 1.826-.021 2.726-.021 17.905 0 34.26 2.566 48.612 7.632 11.508 4.058 21.64 9.75 29.3 16.458 6.58 5.761 13.41 12.038 18.333 19.867 5.311 8.446 7.906 17.727 8.17 29.2.297 13.405-1.155 25.39-2.589 34.389-.383 6.574-.742 12.323-.528 16.36.027.499.25.967.62 1.301.755 1.896 2.672 3.979 4.469 7.074l.237-.14c-2.235-3.91-4.703-6.218-4.88-8.532-.298-3.862 5.64-24.658 5.046-50.505-.593-25.847-13.063-38.324-27.313-50.802-13.93-12.196-39.783-24.68-79.477-24.68-.915 0-1.832 0-2.762.022-41.267.594-88.829 35.323-97.082 51.396-10.985 21.39-15.438 37.433-5.641 76.352a110.363 110.363 0 0 0 13.476 31.788zm202.066-14.557a27.347 27.347 0 0 0-1.867-7.303l-.223.116a27.347 27.347 0 0 1 1.942 7.484c.062.542.091 1.088.089 1.634l.145-.02a13.797 13.797 0 0 0-.086-1.911zM126.359 344.964l-.196-.193.196.193zm.413-1.53l1.484-11.44 1.52-11.441a2698.9 2698.9 0 0 0 2.93-22.894c.462-3.82.905-7.643 1.33-11.468l.633-5.74c.193-1.916.41-3.829.573-5.745l.258-2.876.128-1.438.104-1.44c.136-1.923.297-3.842.368-5.767.05-.963.1-1.925.136-2.888.036-.962.06-1.928.078-2.89.05-1.926.017-3.863-.042-5.785-.89 7.659-1.8 15.276-2.648 22.918-.428 3.817-.837 7.64-1.292 11.458l-1.312 11.456c-.858 7.644-1.781 15.28-2.672 22.917l-1.363 11.477-1.422 11.45-.104.802c.235.22.47.448.704.677l.196.193.205.2.208-1.736zm-14.946 77.46c.77-3.113 1.525-6.23 2.265-9.352.673-2.81 1.331-5.625 1.975-8.443l-.086.053a69.18 69.18 0 0 1-2.007 1.15 895.716 895.716 0 0 1-1.701 6.791 540.275 540.275 0 0 1-2.266 8.616h.487c.36.48.814.883 1.333 1.185z" fill="#FFF" fill-rule="nonzero" opacity=".04"/><path d="M68.762 309.165a18.962 18.962 0 0 1 7.72.431 30.055 30.055 0 0 1 7.187 2.935c3.293 1.521 6.374 3.435 9.4 5.41 3.025 1.976 5.961 4.091 8.847 6.266a189.026 189.026 0 0 1 8.473 6.764c2.758 2.339 5.451 4.754 7.978 7.35l-.033-.026c1.33.817 2.604 1.72 3.815 2.703a60.26 60.26 0 0 1 9.8 9.976 47.714 47.714 0 0 1 5.009 7.88 31.803 31.803 0 0 1 2.969 8.852 22.124 22.124 0 0 1-.324 9.33c-.81 3.035-2.268 5.852-3.987 8.448a49.577 49.577 0 0 1-5.938 7.205 66.692 66.692 0 0 1-7.018 6.155 69.869 69.869 0 0 1-7.764 5.146 55.264 55.264 0 0 1-8.452 3.954 36.478 36.478 0 0 1-4.486 1.32 23.01 23.01 0 0 1-4.64.593 40.647 40.647 0 0 1-9.29-.84 44.433 44.433 0 0 1-16.95-7.54 47.59 47.59 0 0 1-12.573-13.667.065.065 0 0 1 0-.032c-.17-.76-.341-1.518-.493-2.282a16.413 16.413 0 0 1-.33-2.32 9.864 9.864 0 0 1 .152-2.347c.15-.769.348-1.527.594-2.27l.196.063c-.404 1.485-.698 3.024-.538 4.53.086.758.223 1.51.41 2.25.178.748.371 1.485.561 2.254l-.053-.137a46.714 46.714 0 0 0 12.766 13.04 43.502 43.502 0 0 0 16.596 6.963c2.944.566 5.944.788 8.94.663 2.891-.095 5.759-.891 8.565-1.925a53.214 53.214 0 0 0 8.131-3.907 68.18 68.18 0 0 0 7.515-5.083 65.167 65.167 0 0 0 6.739-6.004 47.45 47.45 0 0 0 5.67-6.929 27.783 27.783 0 0 0 3.7-7.843c.18-.677.322-1.365.424-2.058.099-.704.16-1.412.184-2.122a21.633 21.633 0 0 0-.296-4.28 29.794 29.794 0 0 0-2.764-8.301 48.16 48.16 0 0 0-4.75-7.594 59.194 59.194 0 0 0-6.016-6.756 56.669 56.669 0 0 0-3.378-3.006 37.79 37.79 0 0 0-3.587-2.62l-.044-.027a1.52 1.52 0 0 1-.273-.226c-2.42-2.57-5.047-5.006-7.74-7.37a147.517 147.517 0 0 0-4.097-3.483 621.358 621.358 0 0 0-4.18-3.393c-2.819-2.228-5.7-4.37-8.643-6.426-2.936-2.052-5.938-4.043-9.114-5.644l-.042-.021a29.219 29.219 0 0 0-6.947-3.09 21.613 21.613 0 0 0-3.741-.748 16.71 16.71 0 0 0-3.833.026l-.027-.19zm88.589 112.267l.54-2.97c.71-3.973 1.37-7.957 2.007-11.944l.891-5.99c.297-1.999.552-4.001.817-6.003.513-4.008.961-8.022 1.38-12.041.419-4.02.745-8.045 1.045-12.077.3-4.031.481-8.087.594-12.13.113-4.043.095-8.093.03-12.133-.066-4.04-.22-8.081-.434-12.115-.418-8.07-1.107-16.118-1.962-24.145-.855-8.027-1.957-16.022-3.165-23.999s-2.565-15.927-3.987-23.865l-.232.042c1.265 7.962 2.464 15.933 3.512 23.924a610.961 610.961 0 0 1 2.69 24.017c.73 8.018 1.303 16.043 1.6 24.097.158 4.02.25 8.042.256 12.062.006 4.02-.039 8.039-.208 12.052-.17 4.014-.419 8.022-.781 12.018a432.754 432.754 0 0 1-1.283 12c-.475 3.995-.964 7.985-1.484 11.975-.52 3.99-1.054 7.977-1.615 11.964a1465.33 1465.33 0 0 1-1.725 11.951l-.445 2.99-.238 1.485c-.092.484-.178.974-.276 1.458a8.39 8.39 0 0 0 1.933.05c.086-.38.169-.76.252-1.143l.288-1.53z" fill="#FFF" fill-rule="nonzero" opacity=".04"/><path d="M129.444 256.515l-1.268-.184-.152.17c-.988 7.305-3.06 18.261-5.471 30.84a1544.65 1544.65 0 0 1-5.52 29.287 1255.71 1255.71 0 0 0-1.365 7.668c-.532 3.063-1.217 6.322-2.019 9.712.47.428.93.846 1.375 1.262 6.317-29.703 11.792-60.87 14.42-78.755z" fill="#FFF" fill-rule="nonzero" opacity=".04"/><g fill-rule="nonzero"><path d="M226.378 170.826c-1.188-10.048-6.591-14.2-7.99-17.713a1.89 1.89 0 0 1-.62-1.3c-.594-11.29 3.266-35.948-.297-54.665s-16.032-21.093-21.376-20.796c-7.125.398-27.017 24.361-50.768 24.658-23.751.297-46.908-19.31-69.472-11.883-22.563 7.427-36.517 25.252-33.548 47.83 2.969 22.58 9.203 26.739 9.797 33.275.38 4.183-7.048 11.34-3.86 25.846 3.266 14.855 32.955 32.383 70.957 32.383 11.875 0 21.97-8.615 33.548-9.21 6.888-.353 14.447 2.481 29.232-1.782.425-.122.852-.247 1.289-.38 13.25-6.352 24.048-14.142 31.53-21.91 4.034-4.19 6.994-8.441 8.924-12.416 2.182-4.49 3.046-8.636 2.654-11.937z" fill="#FFC5AF"/><path d="M143.79 173.122c.165 2.65 5.566 2.377 8.291 2.012 2.726-.366 5.828-2.4 5.724-3.268-.104-.868-2.116-3.71-7.719-3.019-5.602.693-6.297 4.275-6.297 4.275z" stroke="#8E4637" stroke-width=".891" fill="#A34F3E"/></g><path d="M144.395 172.231c-.573.44-.404 1.26.148 1.72.553.46 1.354.642 2.126.785 3.542.662 7.446.82 10.64-.595.078-.035.164-.083.164-.151 0-.068-.16-.101-.163-.033-3.379 2.472-7.55 3.533-12.08 3.146-1.396-.118-2.913-.457-3.685-1.408a2.048 2.048 0 0 1 .053-2.626c.644-.758 1.654-.915 2.797-.838zm70.405 22.956c3.666-3.806 6.442-7.662 8.365-11.319-26.921 28.072-44.402 29.816-69.673 32.115-26.127 2.377-9.5-1.188-33.846 1.783-22.614 2.76-51.362-2.674-72.01-25.386.13 1.242.328 2.477.594 3.698 3.265 14.855 32.954 32.383 70.956 32.383 11.876 0 21.97-8.615 33.548-9.21 7.087-.362 14.878 2.647 30.52-2.154 13.266-6.351 24.06-14.141 31.545-21.91zm2.671-98.039c-3.563-18.717-16.032-21.093-21.376-20.796-6.775.377-25.019 21.984-47.158 24.43-1.508.065-3.014.141-4.518.228-23.434-.202-46.288-19.216-68.564-11.883-22.563 7.427-36.517 25.252-33.548 47.83 2.969 22.58 9.203 26.739 9.797 33.275a4.35 4.35 0 0 1-.048 1.028c.173-1.12 7.319-2.484 8.313-2.704a70.208 70.208 0 0 1 11.38-1.438c10.237-.526 20.539.612 30.58 2.603a49.01 49.01 0 0 0 3.2.526l.736.297 1.209.282c.255 0 .513-.02.772-.03-.19-.1-.377-.21-.564-.318 5.302.428 10.477-.18 15.14-2.403 10.543-3.019 21.223-7.35 30.966-6.756 14.548.891 14.548 5.942 22.267 4.16 1.223-.298 2.47-.919 3.803-1.783 2.672-.948 5.009-2.826 7.197-4.694a210.86 210.86 0 0 0 2.028-1.756c6.403-3.996 15.162-7.504 28.685-5.446-.594-11.277 3.266-35.935-.297-54.652z" fill="#000D26" fill-rule="nonzero" opacity=".03"/><path d="M39.486 184.79c-12.47-2.675-33.251 4.158-38.002 11.883-2.968 4.159 0 6.833 3.266 4.456s19.497-14.26 33.748-12.478c2.375.297 2.57-3.17.988-3.862zm2.375 13.763c-15.043 5.348-29.095 15.648-32.263 23.966-1.383 3.366 1.98 6.337 4.95 3.366 2.968-2.97 14.051-16.637 28.896-23.173 2.179-.79.398-4.554-1.583-4.159z" fill="#282828" fill-rule="nonzero"/><path d="M38.682 187.677c-2.31.136-4.629.018-6.945.104a39.547 39.547 0 0 0-19.054 5.751c-2.313 1.415-4.51 3.084-7.06 3.993-1.087.39-2.342.621-3.36.077-.355-.2-.64-.503-.817-.87-2.9 4.124.053 6.774 3.304 4.397s19.497-14.26 33.748-12.478c1.13.143 1.78-.573 1.953-1.435a4.074 4.074 0 0 1-1.77.46zm-24.134 38.208c2.968-2.97 14.051-16.637 28.896-23.173 1.006-.365 1.167-1.36.855-2.293-.662.891-1.817 1.503-2.88 1.967-3.69 1.6-7.5 3.015-10.825 5.279-4.474 3.045-7.817 7.448-11.623 11.29-1.84 1.862-3.96 3.686-6.55 4.087-.694.107-1.504.063-1.956-.475a2.152 2.152 0 0 1-.454-1.013c-.151.32-.297.641-.413.956-1.383 3.375 1.98 6.346 4.95 3.375z" fill="#091426" fill-rule="nonzero" opacity=".3"/><path d="M254.701 176.47c-5.558-4.295-20.352-5.15-28.118-4.03a18.439 18.439 0 0 1-.44 3.564c9.913-.407 22.82 3.238 25.292 4.338 2.672 1.18 4.454-.603 3.266-3.871zm-5.938-22.875c-3.453-.796-17.115 1.485-25.699 6.453a27.34 27.34 0 0 1 1.565 3.178c7.535-3.79 19.075-4.563 23.54-4.284 4.75.297 4.454-4.456.594-5.347z" fill="#282828" fill-rule="nonzero"/><path d="M254.701 176.47c-.06-.047-.128-.092-.19-.136a4.21 4.21 0 0 1-1.401 1.138c-1.886.92-4.112.644-6.182.297a108.322 108.322 0 0 1-14.957-3.693 1.959 1.959 0 0 1-.647-.297c-.707-.576-.47-1.147-.053-1.723-.196 0-.395 0-.594.027-.276 0-.55.03-.82.044h-.148l-.698.05h-.098c-.263.022-.521.046-.775.072h-.056l-.689.074h-.098l-.71.095c-.03 1.2-.177 2.394-.439 3.565.307-.012.616-.02.926-.026h.978c1.966.022 3.93.149 5.882.38a83.64 83.64 0 0 1 6.736 1.066l.89.182c1.188.25 2.322.51 3.373.77l.749.19h.041l.698.183h.047l.656.179h.05l.624.178h.027c.416.119.808.235 1.167.348h.018l.495.157h.048l.433.143.057.017.38.131.053.018.333.122h.041l.297.113h.024l.246.104c2.693 1.283 4.475-.5 3.287-3.767zm-6.024-17.528h.378l.254-.03h.084l.296-.059.063-.018a3.32 3.32 0 0 0 .225-.065l.093-.03c.061-.02.121-.044.18-.071l.08-.033a2.71 2.71 0 0 0 .209-.104l.03-.014a2.48 2.48 0 0 0 .207-.134l.057-.045a1.17 1.17 0 0 0 .133-.107l.06-.053c.041-.04.08-.078.115-.116l.045-.05c.049-.055.093-.112.133-.173l.021-.033a1.628 1.628 0 0 0 .125-.216 1.35 1.35 0 0 0 .062-.134l.027-.068c.018-.054.036-.104.05-.158.015-.053 0-.03 0-.047a2.08 2.08 0 0 0 .042-.205v-.066c.003-.05.003-.099 0-.148a.672.672 0 0 0 0-.078v-.219c0-.024 0-.137-.027-.205v-.042c0-.062-.026-.122-.041-.184-.015-.063 0-.054-.024-.08-.024-.027-.03-.092-.048-.137a.692.692 0 0 0-.032-.083c-.018-.05-.04-.1-.063-.149 0-.02-.02-.044-.032-.068a7.832 7.832 0 0 0-.11-.202c0-.02-.03-.042-.042-.063l-.095-.142-.059-.077-.1-.125c-.022-.024-.04-.048-.063-.071-.024-.024-.092-.101-.14-.149l-.038-.042a10.038 10.038 0 0 1-2.117 1.593c-1.847 1.043-3.937 1.565-6.021 1.96a58.096 58.096 0 0 1-13.15.975 3.264 3.264 0 0 1-1.11-.184 1.782 1.782 0 0 1-.953-1.064 71.2 71.2 0 0 0-.95.413l-.335.155c-.2.089-.401.181-.594.276l-.398.193-.51.253-.42.22-.46.243-.42.238-.25.142a27.043 27.043 0 0 1 1.561 3.176c.181-.092.363-.178.547-.264l.193-.092c.169-.077.341-.155.516-.229l.247-.11c.166-.071.335-.14.507-.208l.273-.11c.167-.068.339-.13.508-.196l.297-.107.514-.181.297-.104.52-.17.296-.097.522-.16.318-.093.529-.148.314-.087.57-.157.297-.08.546-.131.297-.071c.184-.045.369-.086.556-.125l.296-.065.568-.12.27-.05.593-.116.217-.038c.217-.039.43-.08.647-.116h.042c.769-.13 1.532-.247 2.28-.348l.17-.02.546-.069.296-.036.496-.056.32-.036.467-.047.338-.033.437-.041.35-.03.413-.033.353-.024c.13-.011.261-.02.392-.026l.35-.024.369-.02.35-.019h3.868l.455.024h.392l.133-.033z" fill="#091426" fill-rule="nonzero" opacity=".3"/><path d="M136.569 26.738c7.422 2.08 19.595 12.478 23.751 13.369 4.156.891 4.652-1.387 4.652-1.387 8.016.89 23.552 9.705 27.709 13.568 2.078 2.376 4.453 4.159 4.453-.595 0-4.753 1.782-40.7-8.016-49.02-11.712-9.943-46.314 13.37-52.55 24.065z" fill="#282828" fill-rule="nonzero"/><path d="M163.464 39.736c-.62.04-1.24.017-1.856-.069-3.295-.517-5.57-3.603-6.87-6.678-3.043-7.199-1.344-17.068 2.349-23.895-9.435 5.701-17.757 12.908-20.518 17.644 7.422 2.08 19.595 12.478 23.751 13.369 1.38.297 2.399.065 3.144-.371zm3.328.371a.98.98 0 0 1-.632-1.587c2.53-3.08 5.97-11.256 7.125-14.064 1.384-3.366 5.938-14.06 7.915-15.644 1.977-1.584 3.96-1.982 5.148-1.783 1.188.2 2.77 2.178 3.563 5.544.793 3.366 3.165 20.796 3.364 24.361.199 3.565 2.176 11.093.988 11.688-1.187.594-4.996-2.891-7.719-4.359-2.57-1.387-9.696-4.159-13.657-4.554-1.918-.196-4.465.618-6.095.398z" fill="#091426" fill-rule="nonzero" opacity=".3"/><g fill-rule="nonzero"><path d="M119.845 184.887a8.234 8.234 0 0 1-1.986 1.132 12.343 12.343 0 0 1-4.453.891 9.17 9.17 0 0 1-2.272-.24c.746-.188 1.485-.315 2.203-.458l2.153-.413c.718-.142 1.434-.297 2.152-.445.719-.149 1.446-.321 2.203-.467z" fill="#8D5548"/><path d="M117.271 185.624a37.252 37.252 0 0 0 7.645 4.623 46.668 46.668 0 0 0 8.461 2.929c2.904.7 5.867 1.128 8.85 1.277 2.98.117 5.964-.064 8.907-.54a40.95 40.95 0 0 0 8.61-2.377 46.193 46.193 0 0 0 8.016-4.035c.641-.392 1.253-.825 1.882-1.238.315-.202.618-.425.918-.651l.89-.671a46.322 46.322 0 0 0 3.477-2.873c.561-.502 1.095-1.031 1.642-1.551l.78-.814.392-.407.372-.422c.243-.297.495-.567.736-.856l.692-.89c.231-.298.43-.595.647-.916.108-.15.207-.307.297-.47l.276-.48.493.222a18.082 18.082 0 0 1-2.503 3.91l-.36.457-.376.437-.752.891c-.531.556-1.045 1.132-1.594 1.673a52.05 52.05 0 0 1-3.435 3.087l-.908.719c-.297.237-.594.478-.92.698-.63.443-1.248.909-1.889 1.334l-1.953 1.248-2.02 1.137c-.332.2-.688.354-1.032.53l-1.043.51c-.685.36-1.41.636-2.125.933a40.632 40.632 0 0 1-8.928 2.573c-3.062.523-6.17.722-9.275.594a46.482 46.482 0 0 1-9.18-1.393 44.77 44.77 0 0 1-8.707-3.2 36.076 36.076 0 0 1-7.764-5.086l.781-.912z" fill="#8D5548"/><path d="M117.019 185.906c.742.297 1.392.669 2.125.924l1.051.434c.35.136.707.264 1.057.395.35.13.698.264 1.048.386l1.063.35c.692.247 1.408.446 2.111.651a62.046 62.046 0 0 0 8.464 1.84l1.051.163 1.06.104c.354.032.701.08 1.051.122.35.041.704.05 1.054.077l1.051.065.526.039h.525c.698 0 1.396.041 2.093.044.698.003 1.39-.035 2.079-.047.347 0 .691-.042 1.036-.066l1.036-.08c.692-.024 1.374-.125 2.057-.208l1.027-.125c.345-.03.68-.127 1.019-.18.677-.123 1.363-.218 2.036-.36.674-.143 1.334-.336 2.004-.485.338-.07.672-.16 1.001-.267l.995-.297c.332-.101.668-.184.994-.297.327-.113.656-.232.986-.345a57.312 57.312 0 0 0 7.772-3.342 72.068 72.068 0 0 0 7.473-4.456c.618-.404 1.188-.853 1.814-1.275l.89-.671.449-.336.436-.347.891-.708.852-.733c.297-.244.55-.508.831-.767.146-.13.262-.27.39-.407l.388-.419.407.181-.264.523c-.092.173-.175.35-.297.511-.208.324-.4.663-.624.975l-.673.936c-.235.297-.481.594-.719.89l-.362.45-.383.43-.763.862c-.535.546-1.057 1.108-1.61 1.64a50.495 50.495 0 0 1-7.181 5.728 46.304 46.304 0 0 1-8.144 4.263 41.13 41.13 0 0 1-8.844 2.531 44.643 44.643 0 0 1-9.186.532 47.585 47.585 0 0 1-9.085-1.382 45.85 45.85 0 0 1-8.636-3.122 36.758 36.758 0 0 1-7.72-4.985l.298-.339z" opacity=".03" fill="#000"/><path d="M117.117 185.796a36.095 36.095 0 0 0 7.615 4.816 45.443 45.443 0 0 0 8.512 3.057 46.209 46.209 0 0 0 8.948 1.32 43.673 43.673 0 0 0 9.022-.565 40.38 40.38 0 0 0 8.696-2.457 45.65 45.65 0 0 0 8.016-4.16 50.33 50.33 0 0 0 7.11-5.6c.55-.517 1.07-1.066 1.604-1.598l.757-.838.38-.419.36-.436c.237-.297.483-.595.715-.874l.665-.891c.223-.297.407-.624.611-.936.102-.153.192-.313.27-.478l.256-.484.674.297-.21.564c-.066.19-.145.374-.235.553-.179.347-.345.716-.54 1.057l-.595 1.022c-.21.33-.433.65-.653.978l-.332.487-.354.47-.706.944c-.493.594-.992 1.215-1.52 1.783a51.994 51.994 0 0 1-3.325 3.348l-.891.775c-.297.259-.594.52-.911.758-.624.481-1.233.99-1.874 1.453l-1.947 1.375c-.668.425-1.351.84-2.031 1.254-.336.217-.695.392-1.045.594l-1.057.567c-.698.398-1.44.702-2.17 1.037a40.654 40.654 0 0 1-9.204 2.924l-.594.121a5.875 5.875 0 0 1-.594.101l-1.205.146c-.801.107-1.606.232-2.417.267l-1.214.075c-.404.017-.81.062-1.214.05h-2.435a83.023 83.023 0 0 1-2.425-.154l-.594-.048-.594-.077-1.205-.16c-.4-.06-.805-.096-1.188-.176l-1.187-.229-1.188-.228c-.392-.095-.784-.205-1.187-.297a31.46 31.46 0 0 1-8.877-3.812 24.086 24.086 0 0 1-1.986-1.393 19.268 19.268 0 0 1-1.85-1.57c-.297-.296-.594-.543-.867-.846-.273-.303-.546-.594-.808-.912-.13-.154-.264-.297-.388-.463-.125-.167-.244-.33-.36-.5-.228-.341-.466-.665-.674-1.015l.44-.577z" opacity=".03" fill="#000"/><path d="M177.044 175.282c.784.075 1.573.062 2.354-.038.775-.075 1.553-.176 2.34-.259.786-.083 1.579-.16 2.375-.19a8.78 8.78 0 0 1 2.422.19l-2.342.508a24.68 24.68 0 0 1-2.375.377c-.807.096-1.62.12-2.432.072a4.926 4.926 0 0 1-2.342-.66z" fill="#8D5548"/></g><path d="M16.032 82.59c-2.969-30.302 17.22-73.677 40.97-78.43 9.204-1.84 31.768 22.578 35.924 32.382 1.782 4.16-5.938 1.485-15.438 4.16-9.5 2.673-25.532 14.26-26.126 16.933-.594 2.674 1.781 13.666-.594 16.637s-13.954 1.388-20.583 2.08c-6.452.674-9.7 2.97-14.153 6.239z" fill="#282828" fill-rule="nonzero"/><path d="M31.233 46.922c-1.413-6.919-1.25-14.064-.253-21.066C20.607 42.222 14.277 64.688 16.032 82.59c4.453-3.268 7.701-5.565 14.153-6.24 1.3-.136 2.796-.183 4.373-.195a51.09 51.09 0 0 0 2.44-3.019c1.621-2.18 3.86-3.817 6.104-5.024-6.288-5.33-10.222-13.107-11.87-21.19zm61.854-8.871c-.962.196-2.117-.28-3.08-.725a30.17 30.17 0 0 0-7.603-2.377 2.855 2.855 0 0 1-1.187-.383 2.813 2.813 0 0 1-.71-.891 76.178 76.178 0 0 0-14.574-17.76c-2.74-2.463-6.172-4.863-9.797-4.18-3.073.58-5.318 3.268-6.749 6.046-1.796 3.502-2.725 7.38-3.503 11.242a168.831 168.831 0 0 0-3.286 29.768c-.018.918-.027 1.857.27 2.727.297.87.959 1.67 1.855 1.875 2.408.552 4.857-1.596 6.582-3.176a11 11 0 0 1 .057-2.582c.594-2.674 16.626-14.26 26.126-16.934 7.998-2.252 14.732-.713 15.599-2.65z" fill="#091426" fill-rule="nonzero" opacity=".3"/><g transform="translate(89.067 110.517)" fill-rule="nonzero"><path d="M15.949 58.66c4.198.16 9.61 1.575 12.193 2.615 6.235-4.097 9.527-18.476 6.594-32.656A27.937 27.937 0 0 0 31.2 19.69C24.345 8.497 10.688 3.921 4.453 12.576c-4.474 6.2-4.898 14.854 0 28.125 1.984 5.377 4.454 9.858 7.304 13.322a47.556 47.556 0 0 0 4.192 4.637z" fill="#D9E9E6"/><path d="M4.299 40.758a68.632 68.632 0 0 1-2.648-8.563 34.46 34.46 0 0 1-.953-8.93c.059-3.031.808-6.01 2.19-8.708.185-.33.36-.665.553-.992l.626-.948c.102-.161.214-.316.336-.463l.35-.452c.25-.297.514-.567.778-.843a10.874 10.874 0 0 1 3.86-2.44 12.37 12.37 0 0 1 4.515-.644c1.517.08 3.016.37 4.454.861 2.857 1 5.487 2.558 7.737 4.584a27.828 27.828 0 0 1 5.67 6.961 28.15 28.15 0 0 1 3.123 8.405l-.32.065a35.137 35.137 0 0 0-4.329-7.587 30.032 30.032 0 0 0-5.863-5.892l-.823-.594c-.279-.19-.564-.371-.846-.555l-.855-.523-.87-.485a19.715 19.715 0 0 0-3.595-1.458 13.945 13.945 0 0 0-3.599-.565 9.355 9.355 0 0 0-3.298.505 7.775 7.775 0 0 0-2.714 1.667c-.192.196-.391.386-.593.594l-.27.327-.137.163c-.048.057-.09.128-.137.19l-.54.77-.49.805a7.964 7.964 0 0 0-.448.829 7.744 7.744 0 0 0-.404.856l-.36.89-.296.916c-.104.309-.19.623-.258.942-.077.318-.172.63-.223.96l-.184.983c-.06.33-.083.668-.128 1.004-.332 2.694-.216 5.552.066 8.443.282 2.89.786 5.826 1.229 8.832l-.306.09z" fill="#C6D9D5"/><path d="M11.757 54.023A37.99 37.99 0 0 1 6.32 46.03a53.347 53.347 0 0 1-2.037-4.409 48.778 48.778 0 0 1-.87-2.267 87.02 87.02 0 0 1-.801-2.29c-.125-.386-.265-.767-.377-1.156l-.345-1.17c-.24-.776-.421-1.57-.614-2.36-.193-.79-.336-1.595-.5-2.394-.088-.398-.13-.805-.192-1.209a27.927 27.927 0 0 1-.17-1.218l-.11-1.227c0-.202-.035-.407-.047-.612V25.1c0-.413-.023-.823-.02-1.236l.05-1.239c.092-1.662.373-3.309.837-4.908a19.317 19.317 0 0 1 2.078-4.548 12.492 12.492 0 0 1 3.424-3.731A10.852 10.852 0 0 1 8.895 8.25c.397-.156.802-.29 1.214-.4.205-.054.416-.096.624-.14l.296-.069.315-.044.63-.087.632-.038.315-.018h.947c.835.049 1.665.164 2.482.345 1.616.357 3.177.931 4.64 1.708a23.75 23.75 0 0 1 4.073 2.724 25.923 25.923 0 0 1 6.137 7.463 28.512 28.512 0 0 0-6.588-6.89 23.184 23.184 0 0 0-4.052-2.424 22.52 22.52 0 0 0-2.18-.873c-.74-.24-1.494-.43-2.259-.57a14.241 14.241 0 0 0-2.295-.238h-.87l-.297.024-.567.044-.56.092-.25.054-.276.065c-.181.048-.368.086-.55.137-.364.112-.723.243-1.074.392a9.499 9.499 0 0 0-2.824 1.806c-.136.128-.297.247-.41.383l-.382.416c-.13.137-.252.282-.363.434l-.347.446-.638.965a17.89 17.89 0 0 0-1.889 4.204 20.622 20.622 0 0 0-.81 4.572l-.056 1.17v1.783c0 .196.026.392.038.594l.083 1.189a51.667 51.667 0 0 0 1.906 9.305 70.093 70.093 0 0 0 3.266 8.995 44.496 44.496 0 0 0 4.8 8.254z" fill="#8D5548"/><path d="M96.896 48.526c1.947-2.302 3.714-5.377 5.16-8.885 4.785-11.605 6.37-28.164-1.114-36.224-5.84-6.29-14.096.25-17.763 9.459a57.366 57.366 0 0 0-2.722 8.811c-2.078 9.656-.668 26.961 2.969 30.6 2.351 2.354 5.555 1.617 7.894.532a35.585 35.585 0 0 1 5.576-4.293z" fill="#D9E9E6"/><path d="M101.907 39.578c.4-2.62.843-5.145 1.087-7.686.243-2.54.469-5.032.513-7.51a53.868 53.868 0 0 0-.297-7.3 35.129 35.129 0 0 0-.576-3.493 23.06 23.06 0 0 0-.953-3.286 17.061 17.061 0 0 0-1.389-2.97l-.422-.681-.454-.648-.496-.609c-.166-.178-.296-.356-.469-.517a5.956 5.956 0 0 0-.982-.796c-.329-.2-.68-.36-1.045-.478a4.783 4.783 0 0 0-1.188-.158 6.16 6.16 0 0 0-1.345.181c-.491.137-.972.311-1.437.52-.499.237-.982.504-1.449.8a18.5 18.5 0 0 0-2.781 2.183c-1.809 1.649-3.373 3.657-4.896 5.811l-.297-.122a26.446 26.446 0 0 1 3.827-6.794 18.334 18.334 0 0 1 2.74-2.816 12.287 12.287 0 0 1 3.388-2.02A9.035 9.035 0 0 1 94.93.71a7.284 7.284 0 0 1 2.016.062 7.2 7.2 0 0 1 1.91.66c.59.32 1.142.706 1.644 1.153 1.968 1.803 3.316 4.159 4.233 6.601a25.61 25.61 0 0 1 1.049 3.788c.243 1.284.412 2.582.504 3.886a38.98 38.98 0 0 1 .086 3.912 44.907 44.907 0 0 1-.26 3.895 52.83 52.83 0 0 1-.565 3.862 53.74 53.74 0 0 1-.837 3.81 55.061 55.061 0 0 1-2.503 7.379l-.3-.14z" fill="#C6D9D5"/><path d="M102.056 39.64a63.635 63.635 0 0 0 3.209-15.074c.226-2.542.234-5.1.024-7.644a35.316 35.316 0 0 0-.526-3.758 24.638 24.638 0 0 0-1.03-3.622 18.722 18.722 0 0 0-1.603-3.366l-.508-.775-.555-.743-.594-.7c-.21-.22-.416-.438-.635-.642-.435-.4-.914-.75-1.428-1.04a6.176 6.176 0 0 0-1.63-.594 6.447 6.447 0 0 0-1.743-.09 8.186 8.186 0 0 0-1.749.384 11.674 11.674 0 0 0-3.218 1.809 17.94 17.94 0 0 0-2.737 2.617 28.425 28.425 0 0 0-4.157 6.477 24.587 24.587 0 0 1 3.584-6.937 18.492 18.492 0 0 1 2.69-2.915A12.245 12.245 0 0 1 92.879.885a9.57 9.57 0 0 1 2.013-.534 7.053 7.053 0 0 1 4.156.727 9.117 9.117 0 0 1 2.482 1.914l.668.766.615.808c.193.28.377.562.564.844a19.884 19.884 0 0 1 1.763 3.619 28.392 28.392 0 0 1 1.562 7.786 39.11 39.11 0 0 1 .047 3.949 43.395 43.395 0 0 1-.11 1.966 30.951 30.951 0 0 1-.21 1.955 49.717 49.717 0 0 1-1.589 7.668 46.79 46.79 0 0 1-2.784 7.288z" fill="#8D5548"/><path d="M87.88 56.595a24.248 24.248 0 0 1 3.657-4.456 30.084 30.084 0 0 1 4.512-3.613c.401-.27.823-.508 1.239-.751.21-.122.418-.247.629-.363l.647-.33.647-.323c.22-.101.446-.193.668-.297.44-.203.89-.381 1.348-.535a17.622 17.622 0 0 1 5.641-1.09 27.856 27.856 0 0 0-5.397 1.738c-.437.175-.855.392-1.277.594-.21.104-.424.202-.635.297l-.615.341-.62.336c-.205.116-.404.24-.594.363-.404.24-.808.48-1.188.748a35.48 35.48 0 0 0-2.315 1.616 56.407 56.407 0 0 0-2.215 1.762 50.352 50.352 0 0 0-4.133 3.963z" fill="#894733"/><path d="M85.504 52.585h-.193c-3.81-.247-6.564-7.695-6.012-16.269.543-8.473 4.064-15.368 7.85-15.368h.19c1.745.11 3.402 1.836 4.54 4.732 1.228 3.123 1.75 7.217 1.484 11.533-.561 8.488-4.083 15.372-7.859 15.372z" fill="#A34F3E"/><path d="M87.14 20.202v1.485h.142c2.97.19 5.89 6.596 5.324 15.479-.265 4.126-1.247 7.959-2.764 10.79-1.325 2.469-2.907 3.886-4.347 3.886h-.145c-2.97-.19-5.89-6.595-5.32-15.478.264-4.124 1.246-7.956 2.763-10.79 1.325-2.47 2.907-3.884 4.347-3.884v-1.488zm0 .003c-4.198 0-8.016 7.091-8.592 16.064-.594 9.144 2.417 16.78 6.707 17.055h.24c4.198 0 8.016-7.091 8.592-16.066.594-9.145-2.417-16.78-6.71-17.056h-.237v.003z" fill="#8E4637"/><path d="M20.693 57.76c-5 0-9.934-6.679-11.234-15.2-1.395-9.15 1.746-17.248 7.003-18.05.278-.044.56-.066.84-.066 4.997 0 9.932 6.676 11.232 15.2 1.398 9.15-1.743 17.23-7.004 18.05a5.637 5.637 0 0 1-.837.066z" fill="#A34F3E"/><path d="M17.303 23.702v1.485c2.125 0 4.361 1.4 6.29 3.943 2.079 2.742 3.581 6.515 4.208 10.626.668 4.368.297 8.616-1.045 11.931-1.238 3.063-3.133 4.938-5.344 5.274-.24.037-.482.055-.725.056-2.126 0-4.361-1.4-6.294-3.942-2.078-2.742-3.562-6.515-4.207-10.627-1.312-8.598 1.612-16.477 6.383-17.204.241-.037.484-.056.728-.057v-1.485h.006zm-.006 0c-.318 0-.636.024-.95.074-5.659.882-9.082 9.326-7.621 18.898 1.38 9.034 6.611 15.829 11.967 15.829.318 0 .636-.025.95-.075 5.674-.867 9.088-9.328 7.627-18.897-1.38-9.035-6.614-15.83-11.967-15.83h-.006z" fill="#8E4637"/><path d="M29.244 61.794a17.935 17.935 0 0 0-2.123-.668 68.41 68.41 0 0 0-2.153-.54 59.833 59.833 0 0 0-2.164-.482c-.724-.146-1.443-.297-2.17-.43a69.347 69.347 0 0 0-2.176-.372 54.348 54.348 0 0 0-2.188-.28c-.73-.08-1.464-.121-2.197-.118a9.331 9.331 0 0 0-2.197.217 6.843 6.843 0 0 1 2.164-.654 14.96 14.96 0 0 1 2.268-.14c.754 0 1.508.063 2.256.137.749.074 1.485.202 2.233.333 1.476.278 2.932.654 4.358 1.123.716.232 1.417.499 2.108.793.698.286 1.362.65 1.98 1.081z" fill="#894733"/><ellipse fill="#FFF" transform="rotate(-12.32 20.395 27.214)" cx="20.395" cy="27.214" rx="2.473" ry="6.141"/><ellipse fill="#FFF" transform="rotate(-.91 89.845 23.3)" cx="89.845" cy="23.3" rx="2.473" ry="6.141"/></g><g fill-rule="nonzero"><path d="M318.728 242.897c-8.907-6.685-39.95-21.765-57.763-12.852-9.53 4.753-11.415 10.231-13.544 18.327a1.557 1.557 0 0 0-.113.297 35.192 35.192 0 0 0-.668 3.223 65.653 65.653 0 0 0-.75 5.41c-.345 2.73-.704 5.526-1.254 8.004.333 5.977 6.47 17.555 17.22 21.985 15.141 6.238 27.314-1.189 27.314-1.189l.56-2.035c6.515 3.479 14.335 5.074 20.091 2.95 0 0 2.248 3.812 9.928 5.027 5.641.891 12.873-13.179 13.954-23.173 1.188-10.998-6.068-19.29-14.975-25.974z" fill="#282828"/><path d="M333.703 268.865c1.188-10.992-6.068-19.284-14.975-25.968-8.907-6.685-41.137-21.765-58.06-13.248-2.91 1.465-5.08 3.019-6.75 4.712-1.886 2.377-3.65 5.517-5.345 9.804a116.85 116.85 0 0 0-1.075 3.862c3.706-8.187 4.115-9.168 9.014-5.9 5.344 3.565 12.172 10.101 22.267 16.043 10.094 5.942 19.297 10.1 23.75 15.746 4.454 5.644 5.642 12.18 10.689 15.151 1.763 1.04 3.165 1.896 4.382 2.531.665.17 1.377.318 2.15.44 5.64.891 12.872-13.179 13.953-23.173z" fill="#494949"/><path d="M268.515 227.3c-.855 3.205 5.469 9.328 13.233 12.153 9.797 3.565 24.344 8.319 29.688 6.833 5.344-1.485-8.312-10.398-15.14-13.963a69.068 69.068 0 0 0-5.73-2.653c-7.438-2.157-15.213-3.339-22.05-2.37z" fill="#99C7C9"/></g><g fill-rule="nonzero"><path d="M304.53 276.887c-.228.47-.513.911-.848 1.313-2.168 2.6-6.027 3.042-9.364 2.49-7.541-1.254-13.467-6.373-18.208-12.074-1.209-1.453-5.25-6.09-6.464-8.298.226 4.584.82 9.932 1.019 12.308.445 5.348-3.738 10.773-4.139 16.195 1.153.287 2.32.51 3.497.671.318.042.63.077.945.11l.15.018c.298.03.595.056.892.077h.133c.297.018.594.036.89.045h.045c.297 0 .594.017.891.02h1.081c.273 0 .543 0 .81-.03h.098c.276 0 .546-.032.817-.053h.13c.547-.043 1.078-.1 1.595-.17h.118l.746-.11.098-.017.715-.122h.033c.24-.044.475-.092.71-.142l.11-.024.676-.149h.053l.627-.154.074-.018.618-.17.098-.026c.407-.117.796-.236 1.166-.357l.086-.026.529-.179.068-.023.49-.179h.024l.472-.178.077-.03.434-.175h.032l.39-.16.05-.024.362-.16.06-.027a20.2 20.2 0 0 0 .635-.297l.044-.021.255-.128.036-.02.208-.105h.018l.184-.098h.03l.139-.077.095-.053.06-.036h.017l.561-2.035c6.514 3.479 14.334 5.074 20.09 2.95a5.3 5.3 0 0 0 .678.838c.023-.095.044-.193.068-.297-2.443-2.876-3.75-6.931-6.003-10.793z" fill="#091426" opacity=".3"/><path d="M333.703 268.865c.033-.297.057-.594.077-.891-.145.404-.297.805-.469 1.188-1.425 3.36-3.82 6.456-7.143 7.962-4.453 2.026-9.797.847-14.064-1.58-4.266-2.428-7.74-5.978-11.534-9.08-9.536-7.798-20.999-12.774-31.767-18.73-4.515-2.5-9.189-5.47-11.282-10.19a12.485 12.485 0 0 1-1.024-5.387 20.682 20.682 0 0 0-2.577 2.201c-1.885 2.377-3.649 5.517-5.344 9.804a116.85 116.85 0 0 0-1.075 3.862c3.703-8.184 4.112-9.165 9.011-5.897 5.344 3.565 12.172 10.101 22.267 16.043 10.094 5.942 19.297 10.1 23.75 15.746 4.454 5.644 5.146 12.774 10.193 15.745 1.781 1.04 3.66 1.302 4.878 1.937.665.17 1.377.318 2.15.44 5.64.891 12.872-13.179 13.953-23.173z" fill="#091426" opacity=".3"/><path d="M271.294 266.488c1.455 1.406 2.604 2.9 3.81 4.368a47.393 47.393 0 0 0 3.888 4.132l.514.484.531.47c.35.318.716.618 1.072.924.357.306.725.594 1.093.891.368.297.745.594 1.122.865a41.7 41.7 0 0 0 4.768 3.048 40.037 40.037 0 0 0 10.54 4.076c1.842.444 3.716.742 5.605.891.472.045.944.06 1.419.08.475.021.947 0 1.422.021h.356c.08-.003.158-.013.235-.03.19-.047.378-.107.561-.178.205-.068.422-.143.66-.199.3-.091.624-.048.89.119l.047.11a2.274 2.274 0 0 1-.573.457 5.996 5.996 0 0 1-.659.342 3.89 3.89 0 0 1-.73.238c-.13.026-.262.042-.395.047h-.365c-.487 0-.974.027-1.46 0-.488-.027-.975 0-1.459-.053a37.147 37.147 0 0 1-5.78-.788 40.36 40.36 0 0 1-10.881-4.088 42.338 42.338 0 0 1-9.346-6.904 36.801 36.801 0 0 1-6.989-9.272l.104-.05z" fill="#FFF" opacity=".04"/></g></g></svg>