<svg id="text-OL" xmlns="http://www.w3.org/2000/svg" 
viewBox="34 34 55 56">
<defs><style>
.cls-2{fill:#fff;}
.cls-3{fill:#f89f1b;}
.cls-4{fill:#fcb627;}
.cls-5{fill:#ffc849;}
.cls-6{fill:#ffdd67;}
.cls-7{fill:#fff584;}
</style></defs>
<title>HomeApp_Icon</title>
<rect class="cls-2" x="34.1" y="34.3" width="55.19" height="55.19" rx="11.95" ry="11.95"/>
<path id="_Compound_Path_" data-name="&lt;Compound Path&gt;" class="cls-3" d="M82.09,56.09,78.22,53h0V46.09c0-.47-.19-.61-.52-.61H74.16c-.39,0-.62.08-.62.61v3.24h0c-5.12-4-10.66-8.41-10.87-8.58a1.35,1.35,0,0,0-2,0L41.29,56.09c-.68.54-.49,1.31.27,1.31h3.6V76.94c0,1.26.5,1.77,1.71,1.77H76.51c1.2,0,1.71-.51,1.71-1.77V57.4h3.6C82.58,57.4,82.77,56.63,82.09,56.09ZM75.19,74.2a1.31,1.31,0,0,1-1.36,1.48H49.55a1.31,1.31,0,0,1-1.36-1.48V55.94a2.61,2.61,0,0,1,1-2.16l11.68-9.22a1.34,1.34,0,0,1,.83-.35,1.38,1.38,0,0,1,.83.35L74.2,53.78a2.61,2.61,0,0,1,1,2.16Z"/>
<path id="_Compound_Path_2" data-name="&lt;Compound Path&gt;" class="cls-4" d="M74.2,53.78,62.52,44.56a1.38,1.38,0,0,0-.83-.35,1.34,1.34,0,0,0-.83.35L49.18,53.78a2.61,2.61,0,0,0-1,2.16V74.2a1.31,1.31,0,0,0,1.36,1.48H73.83a1.31,1.31,0,0,0,1.36-1.48V55.94A2.61,2.61,0,0,0,74.2,53.78Zm-2,17.68A1.06,1.06,0,0,1,71,72.65H52.35a1.05,1.05,0,0,1-1.13-1.19V57.2A1.86,1.86,0,0,1,52,55.51l9-7.14a1,1,0,0,1,1.38,0l9,7.14a1.86,1.86,0,0,1,.75,1.69Z"/>
<path id="_Compound_Path_3" data-name="&lt;Compound Path&gt;" class="cls-5" d="M71.41,55.51l-9-7.14a1,1,0,0,0-1.38,0l-9,7.14a1.86,1.86,0,0,0-.74,1.69V71.46a1.05,1.05,0,0,0,1.13,1.19H71a1.06,1.06,0,0,0,1.14-1.19V57.2A1.86,1.86,0,0,0,71.41,55.51ZM69.13,68.72a.79.79,0,0,1-.86.9H55.11a.79.79,0,0,1-.86-.9V58.46a1.28,1.28,0,0,1,.5-1.22c.32-.27,6.22-4.92,6.39-5.06a.81.81,0,0,1,1.09,0l6.4,5.06a1.28,1.28,0,0,1,.5,1.22Z"/>
<path id="_Compound_Path_4" data-name="&lt;Compound Path&gt;" class="cls-6" d="M68.63,57.24l-6.4-5.06a.81.81,0,0,0-1.09,0c-.17.14-6.07,4.79-6.39,5.06a1.28,1.28,0,0,0-.5,1.22V68.72a.79.79,0,0,0,.86.9H68.27a.79.79,0,0,0,.86-.9V58.46A1.28,1.28,0,0,0,68.63,57.24ZM66.1,66c0,.51-.25.62-.61.62H57.88c-.35,0-.6-.11-.6-.62V59.72a1.18,1.18,0,0,1,.43-.92L61.29,56a.64.64,0,0,1,.8,0l3.58,2.81a1.18,1.18,0,0,1,.43.92Z"/>
<path id="_Path_" data-name="&lt;Path&gt;" class="cls-7" d="M61.69,66.59h3.8c.36,0,.61-.11.61-.62V59.72a1.18,1.18,0,0,0-.43-.92L62.09,56a.64.64,0,0,0-.8,0L57.71,58.8a1.18,1.18,0,0,0-.43.92V66c0,.51.25.62.6.62Z"/>
</svg>